<?xml version="1.0" encoding="UTF-8" standalone="no"?>
<!-- Created with Inkscape (http://www.inkscape.org/) -->

<svg
   xmlns:dc="http://purl.org/dc/elements/1.1/"
   xmlns:cc="http://creativecommons.org/ns#"
   xmlns:rdf="http://www.w3.org/1999/02/22-rdf-syntax-ns#"
   xmlns:svg="http://www.w3.org/2000/svg"
   xmlns="http://www.w3.org/2000/svg"
   xmlns:sodipodi="http://sodipodi.sourceforge.net/DTD/sodipodi-0.dtd"
   xmlns:inkscape="http://www.inkscape.org/namespaces/inkscape"
   width="152mm"
   height="25mm"
   viewBox="0 0 538.58249 88.582678"
   id="svg4220"
   version="1.1"
   inkscape:version="0.91 r13725"
   sodipodi:docname="logo_elmundoenventa.svg"
   inkscape:export-filename="C:\AppServ\www\x\resources\imagenes\logo.png"
   inkscape:export-xdpi="90"
   inkscape:export-ydpi="90"
   enable-background="new">
  <defs
     id="defs4222" />
  <sodipodi:namedview
     id="base"
     pagecolor="#ffffff"
     bordercolor="#666666"
     borderopacity="1.0"
     inkscape:pageopacity="0.0"
     inkscape:pageshadow="2"
     inkscape:zoom="1.2471366"
     inkscape:cx="88.897513"
     inkscape:cy="88.328971"
     inkscape:document-units="px"
     inkscape:current-layer="layer1"
     showgrid="false"
     inkscape:window-width="1920"
     inkscape:window-height="1027"
     inkscape:window-x="1912"
     inkscape:window-y="-8"
     inkscape:window-maximized="1" />
  <metadata
     id="metadata4225">
    <rdf:RDF>
      <cc:Work
         rdf:about="">
        <dc:format>image/svg+xml</dc:format>
        <dc:type
           rdf:resource="http://purl.org/dc/dcmitype/StillImage" />
        <dc:title></dc:title>
      </cc:Work>
    </rdf:RDF>
  </metadata>
  <g
     inkscape:label="Capa 1"
     inkscape:groupmode="layer"
     id="layer1"
     transform="translate(0,-963.77953)"
     style="">
    <g
       id="g4340"
       transform="translate(86.192861,109.0498)">
      <path
         d="m 34.474186,906.31732 0,-5.71674 c 0,-6.7616 -5.47082,-12.72422 -13.09309,-12.72422 -7.622267,0 -13.0930884,5.96262 -13.0930884,12.72422 l 0,6.76174 c 0,6.7003 5.1634714,12.7243 13.2774984,12.7243 6.3314,0 10.63429,-3.4423 12.29398,-8.6058 l -6.39287,-1.045 c -0.86058,2.7047 -3.01203,3.9956 -5.90111,3.9956 -3.99554,0 -6.946099,-2.6432 -7.007569,-8.1141 l 19.916249,0 z m -13.09309,-12.78574 c 3.50378,0 6.57728,2.5203 6.82316,7.7452 l -13.646319,0 c 0.18441,-5.2249 3.319379,-7.7452 6.823159,-7.7452 z"
         style="font-style:normal;font-variant:normal;font-weight:normal;font-stretch:normal;font-size:medium;line-height:125%;font-family:'Core Sans D 45 Medium';-inkscape-font-specification:'Core Sans D 45 Medium, Normal';text-align:start;letter-spacing:0px;word-spacing:0px;writing-mode:lr-tb;text-anchor:start;fill:#000000;fill-opacity:1;stroke:none;stroke-width:0.40000001;stroke-linecap:butt;stroke-linejoin:miter;stroke-miterlimit:0;stroke-dasharray:none;stroke-opacity:1"
         id="path3360-0"
         inkscape:connector-curvature="0" />
      <path
         d="m 47.790096,875.58238 -6.26993,0 0,34.42314 c 0,6.147 3.25791,9.3435 9.89666,9.3435 l 1.29086,0 0,-5.6553 -1.22939,0 c -2.4588,0 -3.6882,-1.5982 -3.6882,-4.3029 l 0,-33.80844 z"
         style="font-style:normal;font-variant:normal;font-weight:normal;font-stretch:normal;font-size:medium;line-height:125%;font-family:'Core Sans D 45 Medium';-inkscape-font-specification:'Core Sans D 45 Medium, Normal';text-align:start;letter-spacing:0px;word-spacing:0px;writing-mode:lr-tb;text-anchor:start;fill:#000000;fill-opacity:1;stroke:none;stroke-width:0.40000001;stroke-linecap:butt;stroke-linejoin:miter;stroke-miterlimit:0;stroke-dasharray:none;stroke-opacity:1"
         id="path3362-0"
         inkscape:connector-curvature="0" />
      <path
         d="m 102.8268,900.60058 c 0,-7.80663 -3.688204,-12.72422 -10.572834,-12.72422 -4.4873,0 -7.99108,2.45879 -10.204,5.47082 -1.65968,-3.44231 -4.73318,-5.47082 -9.09754,-5.47082 -3.87261,0 -7.19198,1.96704 -8.72873,4.54877 l 0,-3.81113 -6.26993,0 0,30.73502 6.26993,0 0,-21.33014 c 1.16793,-2.7661 4.05702,-4.4873 6.63875,-4.4873 4.91759,0 6.39287,2.9506 6.39287,8.2984 l 0,17.51904 6.26993,0 0,-18.74844 c 0,-0.6761 -0.0615,-1.2908 -0.12294,-1.9055 1.65969,-3.135 4.24142,-5.1635 6.76169,-5.1635 4.91759,0 6.39287,2.9506 6.39287,8.2984 l 0,17.51904 6.269934,0 0,-18.74844 z"
         style="font-style:normal;font-variant:normal;font-weight:normal;font-stretch:normal;font-size:medium;line-height:125%;font-family:'Core Sans D 45 Medium';-inkscape-font-specification:'Core Sans D 45 Medium, Normal';text-align:start;letter-spacing:0px;word-spacing:0px;writing-mode:lr-tb;text-anchor:start;fill:#000000;fill-opacity:1;stroke:none;stroke-width:0.40000001;stroke-linecap:butt;stroke-linejoin:miter;stroke-miterlimit:0;stroke-dasharray:none;stroke-opacity:1"
         id="path3364-5"
         inkscape:connector-curvature="0" />
      <path
         d="m 109.69318,907.36232 c 0,7.8067 3.68819,12.7243 10.57282,12.7243 3.8726,0 7.19198,-1.967 8.72872,-4.5488 l 0,3.8112 6.26993,0 0,-30.73502 -6.26993,0 0,21.33012 c -1.16792,2.7661 -4.05701,4.4873 -6.63874,4.4873 -4.9176,0 -6.39287,-2.9506 -6.39287,-8.2985 l 0,-17.51892 -6.26993,0 0,18.74832 z"
         style="font-style:normal;font-variant:normal;font-weight:normal;font-stretch:normal;font-size:medium;line-height:125%;font-family:'Core Sans D 45 Medium';-inkscape-font-specification:'Core Sans D 45 Medium, Normal';text-align:start;letter-spacing:0px;word-spacing:0px;writing-mode:lr-tb;text-anchor:start;fill:#000000;fill-opacity:1;stroke:none;stroke-width:0.40000001;stroke-linecap:butt;stroke-linejoin:miter;stroke-miterlimit:0;stroke-dasharray:none;stroke-opacity:1"
         id="path3366-4"
         inkscape:connector-curvature="0" />
      <path
         d="m 142.59493,919.34902 6.26993,0 0,-21.33014 c 1.16793,-2.7661 4.05702,-4.4873 6.63875,-4.4873 4.91759,0 6.39287,2.9506 6.39287,8.2984 l 0,17.51904 6.26993,0 0,-18.74844 c 0,-7.80663 -3.68819,-12.72422 -10.57282,-12.72422 -3.87261,0 -7.19198,1.96704 -8.72873,4.54877 l 0,-3.81113 -6.26993,0 0,30.73502 z"
         style="font-style:normal;font-variant:normal;font-weight:normal;font-stretch:normal;font-size:medium;line-height:125%;font-family:'Core Sans D 45 Medium';-inkscape-font-specification:'Core Sans D 45 Medium, Normal';text-align:start;letter-spacing:0px;word-spacing:0px;writing-mode:lr-tb;text-anchor:start;fill:#000000;fill-opacity:1;stroke:none;stroke-width:0.40000001;stroke-linecap:butt;stroke-linejoin:miter;stroke-miterlimit:0;stroke-dasharray:none;stroke-opacity:1"
         id="path3368-6"
         inkscape:connector-curvature="0" />
      <path
         d="m 174.32877,907.36232 c 0,6.8847 3.68819,12.7243 11.12605,12.7243 3.56525,0 6.63875,-1.6597 8.11403,-3.9341 l 0,3.1965 6.26992,0 0,-43.76664 -6.26992,0 0,16.22805 c -1.47528,-2.27438 -4.54878,-3.93407 -8.11403,-3.93407 -7.43786,0 -11.12605,5.83962 -11.12605,12.72422 l 0,6.76174 z m 13.21603,-13.83074 c 2.70467,0 4.73318,1.4138 6.02405,3.8726 l 0,13.15464 c -1.29087,2.4588 -3.31938,3.8726 -6.02405,3.8726 -5.10201,0 -6.9461,-3.1965 -6.9461,-8.2985 l 0,-4.30294 c 0,-5.102 1.84409,-8.2984 6.9461,-8.2984 z"
         style="font-style:normal;font-variant:normal;font-weight:normal;font-stretch:normal;font-size:medium;line-height:125%;font-family:'Core Sans D 45 Medium';-inkscape-font-specification:'Core Sans D 45 Medium, Normal';text-align:start;letter-spacing:0px;word-spacing:0px;writing-mode:lr-tb;text-anchor:start;fill:#000000;fill-opacity:1;stroke:none;stroke-width:0.40000001;stroke-linecap:butt;stroke-linejoin:miter;stroke-miterlimit:0;stroke-dasharray:none;stroke-opacity:1"
         id="path3370-9"
         inkscape:connector-curvature="0" />
      <path
         d="m 206.2643,907.36232 c 0,6.7617 5.47082,12.7243 13.09309,12.7243 7.62226,0 13.09308,-5.9626 13.09308,-12.7243 l 0,-6.76174 c 0,-6.7616 -5.47082,-12.72422 -13.09308,-12.72422 -7.62227,0 -13.09309,5.96262 -13.09309,12.72422 l 0,6.76174 z m 6.26993,-5.53234 c 0,-5.5937 3.19643,-8.2984 6.82316,-8.2984 3.62672,0 6.82316,2.7047 6.82316,8.2984 l 0,4.30294 c 0,5.5938 -3.19644,8.2985 -6.82316,8.2985 -3.62673,0 -6.82316,-2.7047 -6.82316,-8.2985 l 0,-4.30294 z"
         style="font-style:normal;font-variant:normal;font-weight:normal;font-stretch:normal;font-size:medium;line-height:125%;font-family:'Core Sans D 45 Medium';-inkscape-font-specification:'Core Sans D 45 Medium, Normal';text-align:start;letter-spacing:0px;word-spacing:0px;writing-mode:lr-tb;text-anchor:start;fill:#000000;fill-opacity:1;stroke:none;stroke-width:0.40000001;stroke-linecap:butt;stroke-linejoin:miter;stroke-miterlimit:0;stroke-dasharray:none;stroke-opacity:1"
         id="path3372-3"
         inkscape:connector-curvature="0" />
      <path
         d="m 264.14588,906.31732 0,-5.71674 c 0,-6.7616 -5.47082,-12.72422 -13.09309,-12.72422 -7.62227,0 -13.09309,5.96262 -13.09309,12.72422 l 0,6.76174 c 0,6.7003 5.16348,12.7243 13.2775,12.7243 6.3314,0 10.63429,-3.4423 12.29398,-8.6058 l -6.39287,-1.045 c -0.86058,2.7047 -3.01202,3.9956 -5.90111,3.9956 -3.99554,0 -6.9461,-2.6432 -7.00757,-8.1141 l 19.91625,0 z m -13.09309,-12.78574 c 3.50379,0 6.57728,2.5203 6.82316,7.7452 l -13.64632,0 c 0.18441,-5.2249 3.31938,-7.7452 6.82316,-7.7452 z"
         style="font-style:normal;font-variant:normal;font-weight:normal;font-stretch:normal;font-size:medium;line-height:125%;font-family:'Core Sans D 45 Medium';-inkscape-font-specification:'Core Sans D 45 Medium, Normal';text-align:start;letter-spacing:0px;word-spacing:0px;writing-mode:lr-tb;text-anchor:start;fill:#000000;fill-opacity:1;stroke:none;stroke-width:0.40000001;stroke-linecap:butt;stroke-linejoin:miter;stroke-miterlimit:0;stroke-dasharray:none;stroke-opacity:1"
         id="path3374-6"
         inkscape:connector-curvature="0" />
      <path
         d="m 270.57717,919.34902 6.26993,0 0,-21.33014 c 1.16792,-2.7661 4.05701,-4.4873 6.63874,-4.4873 4.9176,0 6.39287,2.9506 6.39287,8.2984 l 0,17.51904 6.26993,0 0,-18.74844 c 0,-7.80663 -3.68819,-12.72422 -10.57282,-12.72422 -3.8726,0 -7.19198,1.96704 -8.72872,4.54877 l 0,-3.81113 -6.26993,0 0,30.73502 z"
         style="font-style:normal;font-variant:normal;font-weight:normal;font-stretch:normal;font-size:medium;line-height:125%;font-family:'Core Sans D 45 Medium';-inkscape-font-specification:'Core Sans D 45 Medium, Normal';text-align:start;letter-spacing:0px;word-spacing:0px;writing-mode:lr-tb;text-anchor:start;fill:#000000;fill-opacity:1;stroke:none;stroke-width:0.40000001;stroke-linecap:butt;stroke-linejoin:miter;stroke-miterlimit:0;stroke-dasharray:none;stroke-opacity:1"
         id="path3376-8"
         inkscape:connector-curvature="0" />
      <path
         d="m 328.93611,888.614 -6.57728,0 -8.11403,23.11272 -8.05255,-23.11272 -6.57728,0 11.37193,30.73502 6.57728,0 11.37193,-30.73502 z"
         style="font-style:normal;font-variant:normal;font-weight:normal;font-stretch:normal;font-size:medium;line-height:125%;font-family:'Core Sans D 45 Medium';-inkscape-font-specification:'Core Sans D 45 Medium, Normal';text-align:start;letter-spacing:0px;word-spacing:0px;writing-mode:lr-tb;text-anchor:start;fill:#000000;fill-opacity:1;stroke:none;stroke-width:0.40000001;stroke-linecap:butt;stroke-linejoin:miter;stroke-miterlimit:0;stroke-dasharray:none;stroke-opacity:1"
         id="path3378-9"
         inkscape:connector-curvature="0" />
      <path
         d="m 357.91148,906.31732 0,-5.71674 c 0,-6.7616 -5.47082,-12.72422 -13.09309,-12.72422 -7.62226,0 -13.09308,5.96262 -13.09308,12.72422 l 0,6.76174 c 0,6.7003 5.16347,12.7243 13.27749,12.7243 6.3314,0 10.63429,-3.4423 12.29398,-8.6058 l -6.39287,-1.045 c -0.86058,2.7047 -3.01202,3.9956 -5.90111,3.9956 -3.99554,0 -6.94609,-2.6432 -7.00756,-8.1141 l 19.91624,0 z m -13.09309,-12.78574 c 3.50379,0 6.57728,2.5203 6.82316,7.7452 l -13.64631,0 c 0.1844,-5.2249 3.31937,-7.7452 6.82315,-7.7452 z"
         style="font-style:normal;font-variant:normal;font-weight:normal;font-stretch:normal;font-size:medium;line-height:125%;font-family:'Core Sans D 45 Medium';-inkscape-font-specification:'Core Sans D 45 Medium, Normal';text-align:start;letter-spacing:0px;word-spacing:0px;writing-mode:lr-tb;text-anchor:start;fill:#000000;fill-opacity:1;stroke:none;stroke-width:0.40000001;stroke-linecap:butt;stroke-linejoin:miter;stroke-miterlimit:0;stroke-dasharray:none;stroke-opacity:1"
         id="path3380-1"
         inkscape:connector-curvature="0" />
      <path
         d="m 364.34277,919.34902 6.26993,0 0,-21.33014 c 1.16792,-2.7661 4.05701,-4.4873 6.63874,-4.4873 4.9176,0 6.39287,2.9506 6.39287,8.2984 l 0,17.51904 6.26993,0 0,-18.74844 c 0,-7.80663 -3.68819,-12.72422 -10.57282,-12.72422 -3.8726,0 -7.19198,1.96704 -8.72872,4.54877 l 0,-3.81113 -6.26993,0 0,30.73502 z"
         style="font-style:normal;font-variant:normal;font-weight:normal;font-stretch:normal;font-size:medium;line-height:125%;font-family:'Core Sans D 45 Medium';-inkscape-font-specification:'Core Sans D 45 Medium, Normal';text-align:start;letter-spacing:0px;word-spacing:0px;writing-mode:lr-tb;text-anchor:start;fill:#000000;fill-opacity:1;stroke:none;stroke-width:0.40000001;stroke-linecap:butt;stroke-linejoin:miter;stroke-miterlimit:0;stroke-dasharray:none;stroke-opacity:1"
         id="path3382-8"
         inkscape:connector-curvature="0" />
      <path
         d="m 405.17415,894.26918 7.37638,0 0,-5.65518 -7.37638,0 0,-8.72873 -6.26993,0 0,8.72873 -4.36437,0 0,5.65518 4.36437,0 0,15.73634 c 0,6.147 3.2579,9.3435 9.89665,9.3435 l 4.36436,0 0,-5.6553 -4.30289,0 c -2.4588,0 -3.68819,-1.5982 -3.68819,-4.3029 l 0,-15.12164 z"
         style="font-style:normal;font-variant:normal;font-weight:normal;font-stretch:normal;font-size:medium;line-height:125%;font-family:'Core Sans D 45 Medium';-inkscape-font-specification:'Core Sans D 45 Medium, Normal';text-align:start;letter-spacing:0px;word-spacing:0px;writing-mode:lr-tb;text-anchor:start;fill:#000000;fill-opacity:1;stroke:none;stroke-width:0.40000001;stroke-linecap:butt;stroke-linejoin:miter;stroke-miterlimit:0;stroke-dasharray:none;stroke-opacity:1"
         id="path3384-0"
         inkscape:connector-curvature="0" />
      <path
         d="m 417.49981,911.35792 c 0,4.8561 3.93408,8.7287 10.44988,8.7287 3.93408,0 6.88463,-1.5367 8.66726,-3.9341 l 0,3.1965 6.26993,0 0,-19.79334 c 0,-6.88467 -4.4873,-11.67932 -11.92516,-11.67932 -5.77817,0 -10.204,3.13496 -12.53986,7.92962 l 6.20846,1.7212 c 1.2294,-2.4588 3.19643,-3.9956 6.08552,-3.9956 3.62672,0 5.90111,2.3973 5.90111,6.9461 l 0,0.7991 -5.96258,0 c -9.71224,0 -13.15456,4.48734 -13.15456,9.15904 l 0,0.9221 z m 11.55634,3.0735 c -3.68819,0 -5.28641,-1.6597 -5.28641,-3.6882 l 0,-0.3074 c 0,-2.4588 2.21292,-4.1185 4.97906,-4.1185 l 7.86815,0 0,4.2415 c -1.29087,2.3358 -4.24142,3.8726 -7.5608,3.8726 z"
         style="font-style:normal;font-variant:normal;font-weight:normal;font-stretch:normal;font-size:medium;line-height:125%;font-family:'Core Sans D 45 Medium';-inkscape-font-specification:'Core Sans D 45 Medium, Normal';text-align:start;letter-spacing:0px;word-spacing:0px;writing-mode:lr-tb;text-anchor:start;fill:#000000;fill-opacity:1;stroke:none;stroke-width:0.40000001;stroke-linecap:butt;stroke-linejoin:miter;stroke-miterlimit:0;stroke-dasharray:none;stroke-opacity:1"
         id="path3386-4"
         inkscape:connector-curvature="0" />
    </g>
    <circle
       style="display:inline;opacity:1;fill:#ffc022;fill-opacity:1;stroke:none;stroke-width:0.1;stroke-miterlimit:4;stroke-dasharray:none"
       id="path4200"
       cx="42.724232"
       cy="1007.9731"
       r="32.220337" />
    <g
       id="g3337"
       transform="matrix(0.07584824,0,0,0.07584824,9.0269675,973.70217)"
       style="display:inline;fill:#ffffff;stroke:#ffffff;stroke-opacity:1;stroke-width:1.00200084;stroke-miterlimit:4;stroke-dasharray:none">
      <path
         d="m 439.473,217.475 1.061,1.756 2.09,0.656 1.882,0.046 c 4.42,-11.807 -5.855,-11.807 -14.05,-13.305 l -4.131,0.888 0.696,3.135 12.452,6.824 z m 100.625,15.66 1.689,0.244 C 546,231 551.25,236.25 553,229.25 c -5.25,0 -8.75,-1.75 -14,0 0,0 0,3.5 1.098,3.885 z m -37.694,-3.798 6.346,-0.103 C 507.5,224 495.25,220.5 495.25,227.5 c -1.75,1.75 3.5,1.75 7.154,1.837 z M 377.999,129.5 c -3.5,5.25 -3.5,-3.5 -6.914,-1.089 l -1.46,0.693 c -5.626,7.396 -19.626,9.146 -17.876,21.396 12.25,-1.75 19.25,-10.5 26.25,-21 z m 42.911,64.979 c -8.976,-4.488 -8.976,4.488 -10.067,12.08 l 2.83,2.945 c 7.237,-1.561 11.725,-10.537 7.237,-15.025 z M 383.249,124.25 c 0,1.331 -1.015,3.673 -2.27,5.489 1.791,-1.276 4.02,0.114 4.02,1.511 0,7 -10.5,1.75 -10.5,8.75 1.75,0 3.5,0 1.75,1.75 -1.75,1.75 -5.25,1.75 -7,3.5 l 7,0 c -0.875,2.625 -3.938,3.062 -6.562,3.938 -2.625,0.873 -4.812,2.162 -3.938,6.504 2.188,-1.699 4.595,-2.786 7.109,-3.524 7.547,-2.215 16.078,-1.23 22.641,-5.168 -1.75,0 -1.75,-1.75 -3.5,-1.75 3.5,-1.75 7,-3.5 5.25,-8.75 -1.75,0 -1.75,1.75 -3.5,1.75 3.5,-7 -3.5,-15.75 3.435,-20.331 l 1.458,-2.297 C 397.25,115.5 393.75,115.5 392,115.5 c 1.75,-1.75 3.5,-1.75 5.25,-3.5 -8.75,0 -12.25,8.75 -19.25,12.25 1.749,3.5 5.249,-1.75 5.249,0 z m -3.5,7 c 0.421,-0.419 0.838,-0.941 1.23,-1.511 -0.451,0.322 -0.876,0.805 -1.23,1.511 z m 406.22,205.187 -3.973,-1.357 -1.623,2.61 -0.088,5.603 0.207,1.998 0.809,0.519 1.846,-1.445 1.906,-0.498 0.926,1.54 1.648,5.227 3.219,6.064 1.73,0.181 -1.799,-9.641 0.789,0.021 0.906,0.924 0.633,-0.333 -0.068,-2.175 -1.111,-5.424 -3.346,-10.892 -1.688,-1.208 0.156,3.143 0.332,3.357 -0.455,1.603 -0.956,0.183 z m -1.658,62.259 2.785,0.696 2.525,-0.925 1.562,-2.973 1.148,-4.033 -0.82,-1.132 c -3.287,1.144 -7.744,2.411 -11.066,3.435 l -2.211,3.216 -0.82,5.134 0.037,5.742 -0.793,6.207 -1.389,5.792 -0.256,5.19 0.924,4.865 0.379,5.694 -0.322,5.851 0.604,4.108 1.875,0.171 1.18,-5.354 -0.557,-10.796 1.062,-3.102 1.221,3.208 0.807,4.207 2.148,2.257 2.182,-2.518 0.086,-6.272 -2.283,-7.149 -0.096,-2.304 0.844,-2.501 2.574,-5.19 -0.205,-3.115 -2.387,1.521 -2.389,2.645 -2.109,-1.552 -0.684,-5.403 1.617,-5.021 2.827,-0.599 z m 4.318,57.143 -1.912,0.075 -5.93,3.265 -3.975,-0.855 -1.877,2.041 -0.748,3.925 1.564,1.88 6.244,-1.685 7.234,-6.448 -0.6,-2.198 z m -11.912,-4.616 -7.732,0.229 -3.816,-0.495 -2.689,3.113 2.77,4.17 5.898,0.727 1.895,-0.832 3.469,-4.655 c 0.068,-0.756 0.136,-1.506 0.205,-2.257 z m 20.623,-74.309 -0.775,-3.092 -0.697,1.477 -0.215,4.419 -0.02,4.706 0.469,8.716 -0.068,4.417 0.283,4.188 0.486,1.072 0.516,-0.376 0.197,-1.99 -0.115,-2.231 -0.059,-4.198 0.852,-2.418 1.018,-1.382 0.385,-3.47 -1.725,-5.315 -0.532,-4.523 z m -6.531,84.366 -4.201,4.689 -2.115,3.392 -1.008,5.316 1.254,2.937 2.111,-1.481 3.992,-6.732 8.066,-10.201 -4.316,-0.031 -3.783,2.111 z m 20.525,-54.987 -0.611,0.52 -0.619,4.568 -0.652,5.493 -0.791,2.468 -0.662,-2.081 -0.229,-5.542 0.258,-6.347 0.096,0.005 -0.697,-4.624 -1.107,-2.407 -0.57,0.152 -1.162,1.552 -2.648,-0.282 -0.676,0.508 -0.311,2.302 0.281,2.391 1.002,5.208 0.229,0.275 0.184,0.482 0.209,0.35 0.428,0.337 0.174,0.451 0.184,0.979 0.215,0.78 1.904,-0.07 0.287,0.53 -0.221,1.936 -0.42,1.426 -0.75,0.13 -0.307,0.711 0.006,2.501 0.045,0.825 0.105,0.789 0.035,0.928 -0.094,3.393 0.021,1.475 0.291,0.249 0.365,-0.683 0.375,-3.237 0.359,-1.053 0.354,-0.582 0.336,-0.06 0.332,0.451 0.125,1.589 0.053,2.601 -0.029,1.035 1.633,0.566 0.232,1.371 0.146,0.151 0.078,0.641 0.027,0.566 0.051,0.332 0.146,-0.016 0.012,1.085 0.055,0.739 -0.605,6.988 -0.357,4.482 -0.254,2.37 -0.166,1.175 -0.127,1.081 0.037,0.401 -0.09,0.93 -0.516,0.612 -0.309,0.694 -0.414,2.094 -0.453,4.104 0.098,1.704 0.219,-0.388 0.393,-2 0.293,-1.154 0.105,0.115 0.018,1.223 -0.662,4.318 -0.24,1.757 -0.074,0.65 0.115,-0.604 c 3.053,-16.695 4.949,-33.574 5.688,-50.507 l -0.776,-7.902 z m -47.4,-111.814 2.535,6.622 0.398,6.155 1.129,3.759 1.771,2.701 1.004,-0.481 -0.334,-6.062 0.42,-2.625 2.701,0.373 2.941,2.101 1.098,-3.351 -2.164,-5.328 -3.201,0.089 -3.758,-2.903 -2.508,-7.162 -1.43,-9.067 -3.102,-6.605 -3.701,-4.138 -1.268,-0.283 -0.455,1.448 0.783,3.047 1.018,3.149 1.148,6.056 1.672,6.222 3.303,6.283 z m 11.712,19.025 -0.811,1.229 -0.012,1.47 0.906,4.665 1.168,0.7 1.043,-0.584 0.574,-0.248 0.254,-1.016 -0.273,-1.63 -0.398,-1.676 -1.133,-2.205 -1.318,-0.705 z m 5.108,0.487 2.445,10.65 0.992,1.206 0.551,-0.821 -0.482,-2.496 -0.77,-2.758 -0.537,-2.728 0.068,-2.141 -0.184,-1.445 -0.385,-1.535 -1.273,-2.206 -1.09,-0.595 -0.984,-0.017 -0.406,1.528 0.93,1.863 1.125,1.495 z m -17.399,114.094 3.76,-2.789 1.582,-7.017 c 0.004,-1.801 -0.006,-3.6 -0.023,-5.396 l 0.557,-2.344 1.777,-4.766 0.65,-3.049 0.656,-6.232 1.992,-3.605 1.477,-3.965 -0.775,-3.32 -3.359,-5.646 -1.649,-3.706 0.93,-6.621 2.111,-5.846 -1.277,-4.693 -8.551,-6.95 -2.889,3.314 -0.848,9.936 -0.463,1.028 c 2.045,20.184 2.885,40.559 2.525,60.886 l 1.817,0.781 z m -76.884,111.954 -2.826,-6.162 -6.117,-0.624 -3.922,2.517 -1.934,3.965 -16.15,20.407 -17.188,9.625 -2.66,3.081 -1.951,3.551 -0.947,3.468 1.057,22.562 -8.266,20.929 -0.748,3.625 -0.619,7.453 0.564,3.114 6.453,7.307 9.539,1.578 9.852,-7.153 5.318,-16.505 21.096,-43.834 6.221,-27.099 1.537,-3.15 1.107,-3.327 0.275,0.395 c 0.217,-1.88 0.426,-3.76 0.623,-5.643 l -0.332,1.037 0.018,-1.117 z M 498.043,87.5 c 2.744,-0.001 4.549,-0.002 5.637,-0.002 -1.602,0 -4.196,10e-4 -5.637,0.002 z M 447.999,0 C 200.566,0 0,200.567 0,448 0,695.406 200.566,896 447.999,896 695.406,896 896,695.406 896,448 896,200.567 695.406,0 447.999,0 Z m 0,816.266 c -78.195,0 -150.683,-24.387 -210.312,-65.94 -0.07,-0.126 -0.112,-0.24 -0.094,-0.303 0.03,-0.11 0.298,-0.165 0.592,-0.119 0.294,0.045 0.585,0.012 0.647,-0.072 0.063,-0.087 -0.4,-0.525 -1.033,-0.979 -0.63,-0.452 -1.727,-1.118 -2.436,-1.479 -0.708,-0.352 -1.608,-0.747 -2.001,-0.863 -0.271,-0.08 -1.244,-0.484 -2.436,-1.01 -19.57,-14.303 -37.679,-30.481 -54.054,-48.284 -0.22,-0.378 -0.497,-0.794 -0.81,-1.196 -0.702,-0.894 -1.832,-2.041 -2.513,-2.553 -0.06,-0.045 -0.122,-0.082 -0.184,-0.125 -1.983,-2.219 -3.939,-4.461 -5.869,-6.727 0.952,-0.174 1.403,-0.868 1.006,-1.76 -0.486,-1.099 -2.061,-3.403 -3.492,-5.13 1.61,-0.611 5.275,-0.616 7.113,-4.12 1.851,-10.504 -3.634,-17.494 -7.284,-26.239 1.832,-0.003 3.662,1.743 5.491,3.491 3.215,-5.258 4.829,-10.617 5.496,-16.062 0.334,-2.723 0.431,-5.464 0.366,-8.223 -0.295,-15.979 -13.098,-29.958 -9.409,-43.965 5.533,-21.011 16.561,-40.281 20.652,-62.33 0.969,-2.03 2.097,-4.012 3.205,-5.997 2.215,-3.975 4.347,-7.98 4.94,-12.489 0.721,-2.771 1.083,-7.563 0.767,-10.662 -0.318,-3.095 -0.979,-6.727 -1.466,-8.073 -0.488,-1.345 -1.523,-3.35 -2.298,-4.455 -0.773,-1.106 -5.719,-4.833 -10.989,-8.274 -5.269,-3.443 -9.614,-6.271 -9.656,-6.28 -0.044,-0.012 -0.092,-0.114 -0.11,-0.226 -0.018,-0.112 -0.248,-0.489 -0.512,-0.839 -0.264,-0.352 -0.624,-0.949 -0.8,-1.338 -0.175,-0.384 -0.473,-0.721 -0.66,-0.746 -0.188,-0.023 -0.5,-0.025 -0.694,-0.002 -0.195,0.022 -0.533,-0.043 -0.755,-0.146 -0.221,-0.105 -0.566,-0.33 -0.767,-0.497 -0.201,-0.169 -0.986,-0.424 -1.746,-0.569 -0.758,-0.145 -1.625,-0.477 -1.925,-0.733 -0.3,-0.258 -0.696,-0.482 -0.881,-0.496 -0.186,-0.014 -0.486,0.012 -0.668,0.065 -0.182,0.048 -2.837,0.027 -5.899,-0.041 -3.062,-0.07 -5.808,0.022 -6.103,0.205 -0.293,0.188 -0.584,1.013 -0.647,1.831 -0.063,0.818 -0.36,1.642 -0.659,1.823 -0.302,0.186 -0.818,0.34 -1.147,0.35 -0.332,0.007 -0.746,-0.259 -0.924,-0.587 1.644,-8.969 -5.667,-19.458 -14.835,-15.941 0,0 -0.006,3.499 -0.009,5.251 -7.327,-1.738 1.847,-8.754 -3.646,-10.496 -7.327,-1.738 -3.677,7.006 -9.178,8.767 7.357,-15.764 5.549,-29.761 -3.589,-43.748 -5.476,-12.241 -20.125,-17.468 -20.442,-33.634 -0.614,-1.88 -1.478,-3.752 -1.92,-4.162 -0.44,-0.408 -1.578,0.027 -2.526,0.97 -0.948,0.941 -1.948,1.706 -2.224,1.698 -0.275,-0.007 -0.499,-0.528 -0.495,-1.16 0,-0.629 0.33,-3.012 0.73,-5.297 0.09,-0.521 0.165,-1.027 0.226,-1.511 37.699,-163.353 184.055,-285.13 358.864,-285.13 19.306,0 38.263,1.493 56.763,4.356 -3.383,0.849 -6.604,1.983 -9.508,3.436 -1.539,0.384 -3.072,0.785 -4.611,1.465 -0.725,0.17 -1.504,0.285 -2.396,0.285 3.092,1.031 5.576,-0.369 7.818,-1.692 -0.574,0.054 -1.098,0.161 -1.604,0.283 0.379,-0.105 0.744,-0.242 1.131,-0.34 l 0.566,0 c 0.154,-0.091 0.312,-0.182 0.463,-0.271 0.07,-0.018 0.143,-0.04 0.215,-0.057 2.352,-0.547 4.758,-0.984 7.164,-1.422 1.781,0 3.559,0.449 5.109,0.434 -1.412,0.774 -2.822,1.485 -4.234,2.191 C 502.25,89.25 500.5,91 497,92.75 l 5.25,0 c -1.75,1.75 -1.75,1.75 -3.5,3.5 l 1.75,0 c -5.25,1.75 -8.75,1.75 -14,1.75 1.75,-3.5 7,0 10.5,-3.5 -15.75,0 -29.75,3.5 -45.281,7.584 -2.328,0.833 -4.625,1.747 -6.89,2.744 -2.716,1.196 -5.385,2.514 -8.001,3.957 -6.329,3.215 -16.829,8.465 -13.329,11.965 3.5,3.5 7,4.375 10.5,5.688 1.75,0.656 3.5,1.422 5.233,2.681 1.767,2.132 3.517,3.882 5.267,5.632 C 455,136.5 463.75,124.25 455,115.5 c 2.625,-1.75 4.812,-4.375 7.219,-6.781 2.406,-2.406 5.031,-4.594 8.531,-5.469 -5.25,1.75 -5.25,8.75 -3.5,10.5 3.5,2.625 7.438,0.875 11.594,-1.094 4.156,-1.969 8.531,-4.156 12.906,-2.406 -1.312,1.312 -3.609,2.188 -6.18,2.953 -2.572,0.765 -5.414,1.422 -7.82,2.297 -5.25,0 -7,7 -3.5,10.5 -1.75,-1.75 -5.25,-1.75 -7,-1.75 -1.75,17.5 -22.751,19.25 -35.001,12.25 1.75,0 5.25,1.75 7,-1.75 0,-3.5 -1.75,-3.5 -5.25,-1.749 0,-1.751 0,-5.251 0,-5.251 -7,-1.75 -7,7 -7,12.25 -1.75,0 -5.25,-1.75 -7,-1.75 -14.583,10.208 -27.949,15.555 -43.142,21.105 -3.039,1.11 -6.149,2.219 -9.358,3.291 8.75,3.604 8.75,19.354 0,17.604 C 344.749,173.25 318.5,168 315,196 c 0,3.5 -5.25,8.75 -1.75,12.25 14,10.5 33.248,10.5 48.998,3.5 5.25,-1.75 8.75,-10.5 15.036,-12.204 2.652,-1.147 5.322,-2.305 7.719,-3.942 2.372,-1.664 4.474,-3.81 5.968,-6.961 3.011,-2.491 6.371,-3.801 9.986,-4.572 3.616,-0.77 7.491,-1 11.534,-1.33 2.695,-0.22 5.468,-0.484 8.289,-0.974 11.469,10.733 30.702,23.762 37.702,39.512 1.75,-5.25 6.754,-12.358 13.754,-5.358 -7,-12.25 -32.986,-23.42 -34.736,-40.92 17.5,12.249 35,20.999 47.25,41.999 1.75,1.75 7,3.5 10.5,1.75 5.246,-3.5 3.938,-6.125 2.188,-8.75 -1.75,-2.625 -3.938,-5.25 -0.438,-8.75 1.75,-3.5 3.062,-2.625 4.525,-0.38 11.225,24.88 44.475,12.63 56.725,23.13 17.5,14 -10.5,31.5 -31.5,28 -12.25,-3.5 -22.75,-5.25 -32.506,-8.939 -2.174,-0.59 -4.275,-1.16 -6.264,-1.7 -2.439,-0.205 -5.605,0.179 -7.035,0.853 -1.428,0.672 -2.994,2.469 -3.469,3.99 -0.482,1.522 -0.844,3.594 -0.807,4.604 0.033,1.011 -0.969,2.491 -2.227,3.292 -1.266,0.798 -4.631,0.246 -7.48,-1.229 -2.857,-1.475 -5.85,-2.853 -6.652,-3.062 -0.799,-0.209 -4.254,-1.85 -7.676,-3.646 -1.709,-0.897 -4.058,-1.845 -6.458,-2.65 -12.179,-0.262 -26.179,-9.012 -19.179,-23.012 -11.375,-4.375 -23.625,-5.25 -35.655,-3.719 -3.008,0.383 -6.007,0.91 -8.989,1.558 -16.604,5.66 -32.354,5.66 -49.854,5.66 -12.248,0 -20.998,14 -26.567,25.168 -1.323,1.96 -2.755,3.825 -4.274,5.596 -6.074,7.084 -13.406,12.783 -21.405,15.875 -3.331,1.661 -6.391,3.542 -9.205,5.618 -22.522,16.602 -29.426,45.638 -35.94,73.217 -0.635,0.974 -1.463,2.547 -1.836,3.494 -0.375,0.948 -0.503,3.219 -0.285,5.048 0.219,1.827 0.114,4.894 -0.233,6.812 -0.346,1.919 -0.649,4.255 -0.673,5.191 -0.023,0.936 0.356,2.132 0.843,2.654 0.488,0.525 1.49,1.006 2.226,1.07 2.463,2.376 4.42,5.034 6.079,7.819 1.659,2.787 3.02,5.702 4.287,8.618 13.484,45.57 64.234,42.07 100.041,27.831 2.936,-0.622 5.843,-1.237 8.646,-1.833 2.805,-0.594 5.509,-1.166 8.034,-1.7 6.166,0.816 11.368,2.085 11.556,2.819 0.186,0.734 0.603,1.696 0.919,2.139 0.318,0.443 0.914,1.104 1.322,1.468 0.407,0.364 0.977,1.046 1.267,1.515 0.287,0.468 0.689,1.274 0.898,1.791 0.205,0.516 1.141,1.489 2.078,2.163 0.936,0.675 5.522,1.153 10.177,1.078 6.793,-0.449 10.293,3.051 13.793,8.301 7,15.75 -5.25,33.25 9.681,44.976 0.691,0.646 2.172,2.599 3.996,5.225 1.824,2.627 3.996,5.928 6.069,9.265 4.151,6.682 8.159,16.509 8.904,21.841 0.749,5.329 2.201,11.091 3.23,12.804 1.024,1.709 1.366,5.955 0.755,9.438 -0.309,1.741 -0.986,4.007 -1.857,6.271 -8.027,10.933 -13.277,24.933 -11.527,37.183 7,21 21,40.25 25.298,62.188 0,0 0,0 0.014,2.378 0.602,1.875 1.715,3.936 2.481,4.576 0.766,0.644 1.621,1.488 1.9,1.876 0.277,0.393 0.807,0.969 1.17,1.278 0.365,0.312 0.803,0.634 0.967,0.715 0.164,0.082 1.236,2.037 2.383,4.347 1.145,2.307 3.299,5.693 4.781,7.523 1.482,1.83 3.217,5.282 3.846,7.672 0.633,2.392 0.84,4.799 0.461,5.355 -0.375,0.558 -0.789,1.562 -0.916,2.236 -0.127,0.678 -0.004,1.916 0.277,2.761 0.279,0.841 1.572,2.748 2.873,4.234 1.303,1.49 3.07,3.228 3.928,3.864 0.855,0.634 3.586,1.249 6.064,1.361 2.479,0.113 5.238,0.007 6.135,-0.237 0.893,-0.244 2.219,-0.981 2.939,-1.643 0.725,-0.661 1.863,-1.917 2.533,-2.796 0.67,-0.877 8.996,-1.861 18.504,-2.188 8.523,-4.113 19.887,-9.601 28.406,-13.716 4.777,-4.908 9.406,-10.447 10.289,-12.304 0.879,-1.857 4.061,-5.146 7.074,-7.305 3.012,-2.158 5.961,-6.599 6.553,-9.868 0.588,-3.266 2.035,-7.015 3.207,-8.323 4.084,-4.988 12.834,-4.988 12.834,-10.238 3.5,-19.25 10.5,-35 23.367,-51.375 1.658,-2.734 3.244,-5.512 4.74,-8.328 8.986,-16.896 14.756,-35.192 13.422,-54.161 -0.736,-2.162 -1.418,-4.271 -1.979,-6.337 -10.094,-37.207 20.367,-60.007 55.654,-75.378 0.896,-2.187 1.803,-4.506 2.725,-6.914 2.748,-7.225 5.605,-15.254 8.307,-22.924 0.898,-2.557 1.779,-5.073 2.635,-7.506 4.879,-5.077 3.129,-12.077 3.129,-17.327 -10.5,5.25 -21,3.5 -31.07,5.44 -2.357,0.194 -4.627,0.385 -6.719,0.561 -1.73,-0.452 -3.754,-1.187 -4.498,-1.635 -0.746,-0.447 -5.814,-3.281 -11.088,-5.678 -4.812,-2.188 -5.742,-4.786 -9.189,-7 -1.723,-1.108 -4.553,-7.916 -6.561,-9.625 -2.012,-1.708 -5.244,-6.386 -6.562,-7.875 -6.354,-8.644 -11.812,-16.188 -17.062,-26.688 -7,-10.5 -15.75,-21 -21.721,-33.466 -1.682,-2.269 -3.418,-4.497 -5.199,-6.682 -1.783,-2.185 -3.609,-4.325 -5.477,-6.419 -4.354,-4.183 -6.104,-5.933 -9.201,-9.526 -1.254,-1.054 -0.758,-2.59 1.105,-3.415 10.743,-5.243 7.243,10.507 15.942,9.662 1.982,1.965 3.92,3.968 5.826,6.004 1.904,2.037 3.777,4.106 5.619,6.205 2.459,2.798 4.867,5.648 7.24,8.539 9.366,11.597 18.116,23.847 27.307,35.962 1.117,1.225 2.576,3.422 4.025,5.976 1.445,2.553 2.885,5.462 3.965,8.11 5.566,31.55 40.566,15.8 59.816,8.8 10.5,-5.25 22.75,-10.5 24.5,-22.75 5.25,-24.5 -14,-38.5 -29.75,-52.5 -1.75,14 -17.5,14 -22.551,3.504 -1.512,-1.754 -2.824,-3.504 -3.699,-5.254 0,1.75 -1.75,3.5 -1.75,5.25 -3.5,-8.75 -10.5,-17.5 -15.75,-24.5 8.75,0 15.75,5.25 25.238,9.389 2.896,1.293 5.787,2.595 8.688,3.883 17.387,7.727 35.027,15.078 57.076,12.977 4.375,-0.875 7,2.625 8.531,7.656 0.766,2.516 1.258,5.414 1.562,8.335 0.303,2.92 0.441,5.858 0.494,8.465 1.967,-2.742 3.738,-5.609 5.289,-8.578 1.547,-2.971 2.855,-6.031 3.939,-9.163 6.086,-17.56 5.168,-37.348 0.104,-55.974 43.023,60.271 68.346,134.055 68.346,213.757 0.002,203.385 -164.881,368.268 -368.265,368.268 z M 500.5,85.75 c -1.203,0.602 -2.402,0.99 -3.605,1.32 1.246,-0.722 2.425,-1.32 3.605,-1.32 z m -4.342,1.75 c -0.029,0.019 -0.064,0.038 -0.096,0.057 0.301,-0.028 0.604,-0.057 0.938,-0.057 l -0.842,0 z"
         id="path3339"
         inkscape:connector-curvature="0"
         style="fill:#ffffff;stroke:#ffffff;stroke-opacity:1;stroke-width:1.00200084;stroke-miterlimit:4;stroke-dasharray:none" />
    </g>
    <path
       inkscape:connector-curvature="0"
       id="path3360"
       style="font-style:normal;font-variant:normal;font-weight:normal;font-stretch:normal;font-size:medium;line-height:125%;font-family:'Core Sans D 45 Medium';-inkscape-font-specification:'Core Sans D 45 Medium, Normal';text-align:start;letter-spacing:0px;word-spacing:0px;writing-mode:lr-tb;text-anchor:start;fill:#ffffff;fill-opacity:1;stroke:none;stroke-width:0.40000001;stroke-linecap:butt;stroke-linejoin:miter;stroke-miterlimit:0;stroke-dasharray:none;stroke-opacity:1"
       d="m 119.10897,1013.1844 0,-5.7167 c 0,-6.7616 -5.47082,-12.72422 -13.09309,-12.72422 -7.622267,0 -13.093088,5.96262 -13.093088,12.72422 l 0,6.7617 c 0,6.7003 5.163471,12.7243 13.277498,12.7243 6.3314,0 10.63429,-3.4423 12.29398,-8.6058 l -6.39287,-1.045 c -0.86058,2.7047 -3.01203,3.9956 -5.90111,3.9956 -3.99554,0 -6.946099,-2.6432 -7.007569,-8.1141 l 19.916249,0 z m -13.09309,-12.7857 c 3.50378,0 6.57728,2.5203 6.82316,7.7452 l -13.646319,0 c 0.18441,-5.2249 3.319379,-7.7452 6.823159,-7.7452 z" />
    <path
       inkscape:connector-curvature="0"
       id="path3362"
       style="font-style:normal;font-variant:normal;font-weight:normal;font-stretch:normal;font-size:medium;line-height:125%;font-family:'Core Sans D 45 Medium';-inkscape-font-specification:'Core Sans D 45 Medium, Normal';text-align:start;letter-spacing:0px;word-spacing:0px;writing-mode:lr-tb;text-anchor:start;fill:#ffffff;fill-opacity:1;stroke:none;stroke-width:0.40000001;stroke-linecap:butt;stroke-linejoin:miter;stroke-miterlimit:0;stroke-dasharray:none;stroke-opacity:1"
       d="m 132.42488,982.4495 -6.26993,0 0,34.4231 c 0,6.147 3.25791,9.3435 9.89666,9.3435 l 1.29086,0 0,-5.6553 -1.22939,0 c -2.4588,0 -3.6882,-1.5982 -3.6882,-4.3029 l 0,-33.8084 z" />
    <path
       inkscape:connector-curvature="0"
       id="path3364"
       style="font-style:normal;font-variant:normal;font-weight:normal;font-stretch:normal;font-size:medium;line-height:125%;font-family:'Core Sans D 45 Medium';-inkscape-font-specification:'Core Sans D 45 Medium, Normal';text-align:start;letter-spacing:0px;word-spacing:0px;writing-mode:lr-tb;text-anchor:start;fill:#ffc022;fill-opacity:1;stroke:none;stroke-width:0.40000001;stroke-linecap:butt;stroke-linejoin:miter;stroke-miterlimit:0;stroke-dasharray:none;stroke-opacity:1"
       d="m 187.46158,1007.4677 c 0,-7.80663 -3.6882,-12.72422 -10.57283,-12.72422 -4.4873,0 -7.99108,2.45879 -10.204,5.47082 -1.65968,-3.44231 -4.73318,-5.47082 -9.09754,-5.47082 -3.87261,0 -7.19198,1.96704 -8.72873,4.54877 l 0,-3.81113 -6.26993,0 0,30.73498 6.26993,0 0,-21.3301 c 1.16793,-2.7661 4.05702,-4.4873 6.63875,-4.4873 4.91759,0 6.39287,2.9506 6.39287,8.2984 l 0,17.519 6.26993,0 0,-18.7484 c 0,-0.6761 -0.0615,-1.2908 -0.12294,-1.9055 1.65969,-3.135 4.24142,-5.1635 6.76169,-5.1635 4.91759,0 6.39287,2.9506 6.39287,8.2984 l 0,17.519 6.26993,0 0,-18.7484 z" />
    <path
       inkscape:connector-curvature="0"
       id="path3366"
       style="font-style:normal;font-variant:normal;font-weight:normal;font-stretch:normal;font-size:medium;line-height:125%;font-family:'Core Sans D 45 Medium';-inkscape-font-specification:'Core Sans D 45 Medium, Normal';text-align:start;letter-spacing:0px;word-spacing:0px;writing-mode:lr-tb;text-anchor:start;fill:#ffc022;fill-opacity:1;stroke:none;stroke-width:0.40000001;stroke-linecap:butt;stroke-linejoin:miter;stroke-miterlimit:0;stroke-dasharray:none;stroke-opacity:1"
       d="m 194.32796,1014.2294 c 0,7.8067 3.68819,12.7243 10.57282,12.7243 3.8726,0 7.19198,-1.967 8.72872,-4.5488 l 0,3.8112 6.26993,0 0,-30.73498 -6.26993,0 0,21.33008 c -1.16792,2.7661 -4.05701,4.4873 -6.63874,4.4873 -4.9176,0 -6.39287,-2.9506 -6.39287,-8.2985 l 0,-17.51888 -6.26993,0 0,18.74828 z" />
    <path
       inkscape:connector-curvature="0"
       id="path3368"
       style="font-style:normal;font-variant:normal;font-weight:normal;font-stretch:normal;font-size:medium;line-height:125%;font-family:'Core Sans D 45 Medium';-inkscape-font-specification:'Core Sans D 45 Medium, Normal';text-align:start;letter-spacing:0px;word-spacing:0px;writing-mode:lr-tb;text-anchor:start;fill:#ffc022;fill-opacity:1;stroke:none;stroke-width:0.40000001;stroke-linecap:butt;stroke-linejoin:miter;stroke-miterlimit:0;stroke-dasharray:none;stroke-opacity:1"
       d="m 227.22971,1026.2161 6.26993,0 0,-21.3301 c 1.16793,-2.7661 4.05702,-4.4873 6.63875,-4.4873 4.91759,0 6.39287,2.9506 6.39287,8.2984 l 0,17.519 6.26993,0 0,-18.7484 c 0,-7.80663 -3.68819,-12.72422 -10.57282,-12.72422 -3.87261,0 -7.19198,1.96704 -8.72873,4.54877 l 0,-3.81113 -6.26993,0 0,30.73498 z" />
    <path
       inkscape:connector-curvature="0"
       id="path3370"
       style="font-style:normal;font-variant:normal;font-weight:normal;font-stretch:normal;font-size:medium;line-height:125%;font-family:'Core Sans D 45 Medium';-inkscape-font-specification:'Core Sans D 45 Medium, Normal';text-align:start;letter-spacing:0px;word-spacing:0px;writing-mode:lr-tb;text-anchor:start;fill:#ffc022;fill-opacity:1;stroke:none;stroke-width:0.40000001;stroke-linecap:butt;stroke-linejoin:miter;stroke-miterlimit:0;stroke-dasharray:none;stroke-opacity:1"
       d="m 258.96355,1014.2294 c 0,6.8847 3.68819,12.7243 11.12605,12.7243 3.56525,0 6.63875,-1.6597 8.11403,-3.9341 l 0,3.1965 6.26992,0 0,-43.7666 -6.26992,0 0,16.22805 c -1.47528,-2.27438 -4.54878,-3.93407 -8.11403,-3.93407 -7.43786,0 -11.12605,5.83962 -11.12605,12.72422 l 0,6.7617 z m 13.21603,-13.8307 c 2.70467,0 4.73318,1.4138 6.02405,3.8726 l 0,13.1546 c -1.29087,2.4588 -3.31938,3.8726 -6.02405,3.8726 -5.10201,0 -6.9461,-3.1965 -6.9461,-8.2985 l 0,-4.3029 c 0,-5.102 1.84409,-8.2984 6.9461,-8.2984 z" />
    <path
       inkscape:connector-curvature="0"
       id="path3372"
       style="font-style:normal;font-variant:normal;font-weight:normal;font-stretch:normal;font-size:medium;line-height:125%;font-family:'Core Sans D 45 Medium';-inkscape-font-specification:'Core Sans D 45 Medium, Normal';text-align:start;letter-spacing:0px;word-spacing:0px;writing-mode:lr-tb;text-anchor:start;fill:#ffc022;fill-opacity:1;stroke:none;stroke-width:0.40000001;stroke-linecap:butt;stroke-linejoin:miter;stroke-miterlimit:0;stroke-dasharray:none;stroke-opacity:1"
       d="m 290.89908,1014.2294 c 0,6.7617 5.47082,12.7243 13.09309,12.7243 7.62226,0 13.09308,-5.9626 13.09308,-12.7243 l 0,-6.7617 c 0,-6.7616 -5.47082,-12.72422 -13.09308,-12.72422 -7.62227,0 -13.09309,5.96262 -13.09309,12.72422 l 0,6.7617 z m 6.26993,-5.5323 c 0,-5.5937 3.19643,-8.2984 6.82316,-8.2984 3.62672,0 6.82316,2.7047 6.82316,8.2984 l 0,4.3029 c 0,5.5938 -3.19644,8.2985 -6.82316,8.2985 -3.62673,0 -6.82316,-2.7047 -6.82316,-8.2985 l 0,-4.3029 z" />
    <path
       inkscape:connector-curvature="0"
       id="path3374"
       style="font-style:normal;font-variant:normal;font-weight:normal;font-stretch:normal;font-size:medium;line-height:125%;font-family:'Core Sans D 45 Medium';-inkscape-font-specification:'Core Sans D 45 Medium, Normal';text-align:start;letter-spacing:0px;word-spacing:0px;writing-mode:lr-tb;text-anchor:start;fill:#ffffff;fill-opacity:1;stroke:none;stroke-width:0.40000001;stroke-linecap:butt;stroke-linejoin:miter;stroke-miterlimit:0;stroke-dasharray:none;stroke-opacity:1"
       d="m 348.78066,1013.1844 0,-5.7167 c 0,-6.7616 -5.47082,-12.72422 -13.09309,-12.72422 -7.62227,0 -13.09309,5.96262 -13.09309,12.72422 l 0,6.7617 c 0,6.7003 5.16348,12.7243 13.2775,12.7243 6.3314,0 10.63429,-3.4423 12.29398,-8.6058 l -6.39287,-1.045 c -0.86058,2.7047 -3.01202,3.9956 -5.90111,3.9956 -3.99554,0 -6.9461,-2.6432 -7.00757,-8.1141 l 19.91625,0 z m -13.09309,-12.7857 c 3.50379,0 6.57728,2.5203 6.82316,7.7452 l -13.64632,0 c 0.18441,-5.2249 3.31938,-7.7452 6.82316,-7.7452 z" />
    <path
       inkscape:connector-curvature="0"
       id="path3376"
       style="font-style:normal;font-variant:normal;font-weight:normal;font-stretch:normal;font-size:medium;line-height:125%;font-family:'Core Sans D 45 Medium';-inkscape-font-specification:'Core Sans D 45 Medium, Normal';text-align:start;letter-spacing:0px;word-spacing:0px;writing-mode:lr-tb;text-anchor:start;fill:#ffffff;fill-opacity:1;stroke:none;stroke-width:0.40000001;stroke-linecap:butt;stroke-linejoin:miter;stroke-miterlimit:0;stroke-dasharray:none;stroke-opacity:1"
       d="m 355.21195,1026.2161 6.26993,0 0,-21.3301 c 1.16792,-2.7661 4.05701,-4.4873 6.63874,-4.4873 4.9176,0 6.39287,2.9506 6.39287,8.2984 l 0,17.519 6.26993,0 0,-18.7484 c 0,-7.80663 -3.68819,-12.72422 -10.57282,-12.72422 -3.8726,0 -7.19198,1.96704 -8.72872,4.54877 l 0,-3.81113 -6.26993,0 0,30.73498 z" />
    <path
       inkscape:connector-curvature="0"
       id="path3378"
       style="font-style:normal;font-variant:normal;font-weight:normal;font-stretch:normal;font-size:medium;line-height:125%;font-family:'Core Sans D 45 Medium';-inkscape-font-specification:'Core Sans D 45 Medium, Normal';text-align:start;letter-spacing:0px;word-spacing:0px;writing-mode:lr-tb;text-anchor:start;fill:#ffffff;fill-opacity:1;stroke:none;stroke-width:0.40000001;stroke-linecap:butt;stroke-linejoin:miter;stroke-miterlimit:0;stroke-dasharray:none;stroke-opacity:1"
       d="m 413.57089,995.48112 -6.57728,0 -8.11403,23.11268 -8.05255,-23.11268 -6.57728,0 11.37193,30.73498 6.57728,0 11.37193,-30.73498 z" />
    <path
       inkscape:connector-curvature="0"
       id="path3380"
       style="font-style:normal;font-variant:normal;font-weight:normal;font-stretch:normal;font-size:medium;line-height:125%;font-family:'Core Sans D 45 Medium';-inkscape-font-specification:'Core Sans D 45 Medium, Normal';text-align:start;letter-spacing:0px;word-spacing:0px;writing-mode:lr-tb;text-anchor:start;fill:#ffffff;fill-opacity:1;stroke:none;stroke-width:0.40000001;stroke-linecap:butt;stroke-linejoin:miter;stroke-miterlimit:0;stroke-dasharray:none;stroke-opacity:1"
       d="m 442.54626,1013.1844 0,-5.7167 c 0,-6.7616 -5.47082,-12.72422 -13.09309,-12.72422 -7.62226,0 -13.09308,5.96262 -13.09308,12.72422 l 0,6.7617 c 0,6.7003 5.16347,12.7243 13.27749,12.7243 6.3314,0 10.63429,-3.4423 12.29398,-8.6058 l -6.39287,-1.045 c -0.86058,2.7047 -3.01202,3.9956 -5.90111,3.9956 -3.99554,0 -6.94609,-2.6432 -7.00756,-8.1141 l 19.91624,0 z m -13.09309,-12.7857 c 3.50379,0 6.57728,2.5203 6.82316,7.7452 l -13.64631,0 c 0.1844,-5.2249 3.31937,-7.7452 6.82315,-7.7452 z" />
    <path
       inkscape:connector-curvature="0"
       id="path3382"
       style="font-style:normal;font-variant:normal;font-weight:normal;font-stretch:normal;font-size:medium;line-height:125%;font-family:'Core Sans D 45 Medium';-inkscape-font-specification:'Core Sans D 45 Medium, Normal';text-align:start;letter-spacing:0px;word-spacing:0px;writing-mode:lr-tb;text-anchor:start;fill:#ffffff;fill-opacity:1;stroke:none;stroke-width:0.40000001;stroke-linecap:butt;stroke-linejoin:miter;stroke-miterlimit:0;stroke-dasharray:none;stroke-opacity:1"
       d="m 448.97755,1026.2161 6.26993,0 0,-21.3301 c 1.16792,-2.7661 4.05701,-4.4873 6.63874,-4.4873 4.9176,0 6.39287,2.9506 6.39287,8.2984 l 0,17.519 6.26993,0 0,-18.7484 c 0,-7.80663 -3.68819,-12.72422 -10.57282,-12.72422 -3.8726,0 -7.19198,1.96704 -8.72872,4.54877 l 0,-3.81113 -6.26993,0 0,30.73498 z" />
    <path
       inkscape:connector-curvature="0"
       id="path3384"
       style="font-style:normal;font-variant:normal;font-weight:normal;font-stretch:normal;font-size:medium;line-height:125%;font-family:'Core Sans D 45 Medium';-inkscape-font-specification:'Core Sans D 45 Medium, Normal';text-align:start;letter-spacing:0px;word-spacing:0px;writing-mode:lr-tb;text-anchor:start;fill:#ffffff;fill-opacity:1;stroke:none;stroke-width:0.40000001;stroke-linecap:butt;stroke-linejoin:miter;stroke-miterlimit:0;stroke-dasharray:none;stroke-opacity:1"
       d="m 489.80893,1001.1363 7.37638,0 0,-5.65518 -7.37638,0 0,-8.72873 -6.26993,0 0,8.72873 -4.36437,0 0,5.65518 4.36437,0 0,15.7363 c 0,6.147 3.2579,9.3435 9.89665,9.3435 l 4.36436,0 0,-5.6553 -4.30289,0 c -2.4588,0 -3.68819,-1.5982 -3.68819,-4.3029 l 0,-15.1216 z" />
    <path
       inkscape:connector-curvature="0"
       id="path3386"
       style="font-style:normal;font-variant:normal;font-weight:normal;font-stretch:normal;font-size:medium;line-height:125%;font-family:'Core Sans D 45 Medium';-inkscape-font-specification:'Core Sans D 45 Medium, Normal';text-align:start;letter-spacing:0px;word-spacing:0px;writing-mode:lr-tb;text-anchor:start;fill:#ffffff;fill-opacity:1;stroke:none;stroke-width:0.40000001;stroke-linecap:butt;stroke-linejoin:miter;stroke-miterlimit:0;stroke-dasharray:none;stroke-opacity:1"
       d="m 502.13459,1018.225 c 0,4.8561 3.93408,8.7287 10.44988,8.7287 3.93408,0 6.88463,-1.5367 8.66726,-3.9341 l 0,3.1965 6.26993,0 0,-19.7933 c 0,-6.88467 -4.4873,-11.67932 -11.92516,-11.67932 -5.77817,0 -10.204,3.13496 -12.53986,7.92962 l 6.20846,1.7212 c 1.2294,-2.4588 3.19643,-3.9956 6.08552,-3.9956 3.62672,0 5.90111,2.3973 5.90111,6.9461 l 0,0.7991 -5.96258,0 c -9.71224,0 -13.15456,4.4873 -13.15456,9.159 l 0,0.9221 z m 11.55634,3.0735 c -3.68819,0 -5.28641,-1.6597 -5.28641,-3.6882 l 0,-0.3074 c 0,-2.4588 2.21292,-4.1185 4.97906,-4.1185 l 7.86815,0 0,4.2415 c -1.29087,2.3358 -4.24142,3.8726 -7.5608,3.8726 z" />
    <path
       style="opacity:0;fill:#ffffff;fill-opacity:1;stroke:none;stroke-width:0.40000001;stroke-linejoin:round;stroke-miterlimit:0;stroke-dasharray:none;stroke-opacity:1"
       d="M 35.116615,76.682002 C 31.412549,75.704058 28.352294,74.47404 25.895492,72.97572 11.258814,64.049324 5.4047891,46.331016 11.947704,30.760109 14.178573,25.451058 18.538847,19.95881 23.089063,16.72633 36.687865,7.065725 54.195391,8.186958 66.087031,19.480045 c 3.405541,3.234129 5.555318,6.201347 7.536063,10.401617 2.047972,4.342829 2.66468,7.107714 2.878682,12.905998 0.162112,4.392202 0.05736,5.77945 -0.666021,8.820205 -2.954203,12.418162 -12.601086,22.092138 -24.992759,25.062964 -4.398054,1.054407 -11.75522,1.059631 -15.726381,0.01118 l 0,-1.2e-5 z m 16.972848,-6.144479 c 8.182019,-2.871883 14.767151,-9.484157 17.493945,-17.566055 1.465698,-4.34416 1.841795,-11.104539 0.852473,-15.323203 -0.648417,-2.764972 -2.817217,-7.820644 -3.986832,-9.293667 -0.604032,-0.760724 -0.637645,-0.699054 -0.655566,1.202755 -0.01038,1.102526 -0.193776,2.275212 -0.40753,2.60597 -0.338439,0.523696 -0.389432,0.517368 -0.39478,-0.04899 -0.0042,-0.450959 -0.515854,-0.731873 -1.668574,-0.916201 -0.914343,-0.146209 -2.543551,-0.644879 -3.620466,-1.108156 -2.144809,-0.922671 -2.648695,-0.824317 -1.902041,0.371266 0.744642,1.192362 1.981367,1.854085 2.498568,1.336884 0.710499,-0.7105 2.280865,1.075767 2.280865,2.594452 0,1.07176 -0.229895,1.39674 -1.371205,1.938327 -0.754168,0.357874 -1.912084,0.758856 -2.573155,0.89107 -1.063444,0.212688 -1.280778,0.08523 -1.886064,-1.106147 -1.207799,-2.377278 -4.575281,-6.358016 -5.378529,-6.358016 -0.532945,0 -0.543196,0.676942 -0.0152,1.003265 0.221371,0.136813 1.321961,1.682125 2.445759,3.434027 2.477327,3.861932 3.56135,4.783831 5.625109,4.783831 0.852285,0 1.549606,0.15838 1.549606,0.351956 0,1.041194 -1.281788,3.141479 -2.271848,3.722559 -2.461779,1.444852 -3.085528,2.530749 -3.13177,5.452165 -0.03648,2.305423 -0.260613,3.106807 -1.529215,5.467948 -0.817549,1.521641 -1.486453,3.010051 -1.486453,3.307577 0,0.297529 -0.1657,0.540959 -0.36822,0.540959 -0.202519,0 -0.761179,0.63582 -1.241459,1.412932 -1.001547,1.620537 -2.41211,2.460573 -4.76293,2.836482 -1.392271,0.222634 -1.645759,0.156739 -1.645759,-0.42782 0,-0.380043 -0.260336,-1.16986 -0.578524,-1.755145 -0.318188,-0.585284 -1.072581,-2.20979 -1.676428,-3.610009 -0.994243,-2.305485 -1.047894,-2.665093 -0.568244,-3.808725 0.733679,-1.749315 0.597066,-3.305043 -0.440577,-5.017227 -0.485839,-0.801669 -0.987619,-2.164358 -1.115066,-3.028197 -0.195638,-1.326037 -0.490977,-1.714675 -1.896584,-2.495724 -1.617196,-0.898621 -1.725676,-0.907049 -3.7889,-0.294337 -2.18035,0.647494 -4.421571,0.538101 -5.38675,-0.262926 -0.300049,-0.249019 -0.927212,-1.241182 -1.393695,-2.204808 -0.829087,-1.712665 -0.83274,-1.80697 -0.162524,-4.1956 0.540085,-1.924849 1.029054,-2.737516 2.30347,-3.828369 0.889815,-0.761648 1.735298,-1.384814 1.878852,-1.384814 0.143553,0 0.509868,-0.465003 0.814032,-1.033339 0.762015,-1.423837 1.316076,-1.641011 4.994866,-1.957823 3.049353,-0.262607 3.227097,-0.232681 3.608266,0.607504 0.504962,1.113053 3.757974,2.312637 4.224476,1.557821 0.237386,-0.384099 0.711834,-0.390084 2.153126,-0.02716 2.15336,0.542223 3.7056,0.260451 4.258723,-0.773069 0.486586,-0.909198 -0.843765,-1.982197 -2.457614,-1.982197 -0.585453,0 -1.289053,-0.27062 -1.563558,-0.601377 -0.63941,-0.770443 -1.202755,-0.770443 -1.202755,0 0,0.888712 -0.460707,0.722815 -1.804133,-0.649652 -1.640632,-1.6761 -2.605969,-2.17586 -2.605969,-1.349125 0,0.456645 -0.175104,0.537412 -0.622408,0.287088 -0.670534,-0.375249 -2.985858,-0.171992 -2.985858,0.262122 0,0.144957 -0.784544,0.692134 -1.743433,1.215949 -2.190974,1.19687 -4.080804,0.947097 -3.641938,-0.481345 0.387806,-1.262249 0.441172,-1.289629 2.513549,-1.289629 1.394522,0 1.869526,-0.152797 1.869526,-0.601378 0,-0.775735 3.72772,-2.512767 4.809696,-2.241208 0.463359,0.116296 1.351628,-0.137677 2.018153,-0.577026 0.654786,-0.431611 1.010106,-0.79233 0.789601,-0.801596 -0.220505,-0.0093 0.05011,-0.274683 0.601377,-0.589813 0.989657,-0.565739 0.990921,-0.573143 0.10023,-0.587171 -0.496137,-0.0078 -0.902066,-0.206777 -0.902066,-0.442142 0,-0.235364 0.325186,-0.324725 0.722638,-0.198579 0.842694,0.267461 2.441138,-0.754001 1.948356,-1.245068 -0.184048,-0.183408 -2.348723,-0.326169 -4.81039,-0.317247 -7.896118,0.02862 -13.792001,2.498711 -19.561183,8.195201 -2.96138,2.924065 -3.734376,3.984204 -5.37508,7.371747 -2.338561,4.828397 -2.528887,6.676439 -0.888399,8.626253 0.732846,0.871031 1.102526,1.770603 1.102526,2.68287 0,1.248785 0.308549,1.581301 1.31414,1.416212 0.171515,-0.02816 0.411962,0.209706 0.534328,0.528585 0.122365,0.31888 0.471768,0.484122 0.776451,0.367204 0.718538,-0.275729 2.987938,1.339565 2.987938,2.12673 0,0.333391 -0.519716,2.080135 -1.154924,3.881654 -1.061448,3.01038 -1.118792,3.451438 -0.708505,5.449427 0.287846,1.401727 0.306458,2.220527 0.0524,2.305085 -0.780189,0.259674 -0.310512,3.362691 0.668672,4.417719 3.017667,3.251404 8.565211,6.4886 13.319322,7.772308 4.261491,1.150692 12.144321,0.885457 16.222058,-0.545822 z"
       id="path4267"
       inkscape:connector-curvature="0"
       transform="translate(-9.1552734e-5,963.77953)" />
    <path
       style="opacity:0;fill:#ffffff;fill-opacity:1;stroke:none;stroke-width:0.40000001;stroke-linejoin:round;stroke-miterlimit:0;stroke-dasharray:none;stroke-opacity:1"
       d="M 35.116615,76.682002 C 31.412549,75.704058 28.352294,74.47404 25.895492,72.97572 11.258814,64.049324 5.4047891,46.331016 11.947704,30.760109 14.178573,25.451058 18.538847,19.95881 23.089063,16.72633 36.687865,7.065725 54.195391,8.186958 66.087031,19.480045 c 3.405541,3.234129 5.555318,6.201347 7.536063,10.401617 2.047972,4.342829 2.66468,7.107714 2.878682,12.905998 0.162112,4.392202 0.05736,5.77945 -0.666021,8.820205 -2.954203,12.418162 -12.601086,22.092138 -24.992759,25.062964 -4.398054,1.054407 -11.75522,1.059631 -15.726381,0.01118 l 0,-1.2e-5 z m 16.972848,-6.144479 c 8.182019,-2.871883 14.767151,-9.484157 17.493945,-17.566055 1.465698,-4.34416 1.841795,-11.104539 0.852473,-15.323203 -0.648417,-2.764972 -2.817217,-7.820644 -3.986832,-9.293667 -0.604032,-0.760724 -0.637645,-0.699054 -0.655566,1.202755 -0.01038,1.102526 -0.193776,2.275212 -0.40753,2.60597 -0.338439,0.523696 -0.389432,0.517368 -0.39478,-0.04899 -0.0042,-0.450959 -0.515854,-0.731873 -1.668574,-0.916201 -0.914343,-0.146209 -2.543551,-0.644879 -3.620466,-1.108156 -2.144809,-0.922671 -2.648695,-0.824317 -1.902041,0.371266 0.744642,1.192362 1.981367,1.854085 2.498568,1.336884 0.710499,-0.7105 2.280865,1.075767 2.280865,2.594452 0,1.07176 -0.229895,1.39674 -1.371205,1.938327 -0.754168,0.357874 -1.912084,0.758856 -2.573155,0.89107 -1.063444,0.212688 -1.280778,0.08523 -1.886064,-1.106147 -1.207799,-2.377278 -4.575281,-6.358016 -5.378529,-6.358016 -0.532945,0 -0.543196,0.676942 -0.0152,1.003265 0.221371,0.136813 1.321961,1.682125 2.445759,3.434027 2.477327,3.861932 3.56135,4.783831 5.625109,4.783831 0.852285,0 1.549606,0.15838 1.549606,0.351956 0,1.041194 -1.281788,3.141479 -2.271848,3.722559 -2.461779,1.444852 -3.085528,2.530749 -3.13177,5.452165 -0.03648,2.305423 -0.260613,3.106807 -1.529215,5.467948 -0.817549,1.521641 -1.486453,3.010051 -1.486453,3.307577 0,0.297529 -0.1657,0.540959 -0.36822,0.540959 -0.202519,0 -0.761179,0.63582 -1.241459,1.412932 -1.001547,1.620537 -2.41211,2.460573 -4.76293,2.836482 -1.392271,0.222634 -1.645759,0.156739 -1.645759,-0.42782 0,-0.380043 -0.260336,-1.16986 -0.578524,-1.755145 -0.318188,-0.585284 -1.072581,-2.20979 -1.676428,-3.610009 -0.994243,-2.305485 -1.047894,-2.665093 -0.568244,-3.808725 0.733679,-1.749315 0.597066,-3.305043 -0.440577,-5.017227 -0.485839,-0.801669 -0.987619,-2.164358 -1.115066,-3.028197 -0.195638,-1.326037 -0.490977,-1.714675 -1.896584,-2.495724 -1.617196,-0.898621 -1.725676,-0.907049 -3.7889,-0.294337 -2.18035,0.647494 -4.421571,0.538101 -5.38675,-0.262926 -0.300049,-0.249019 -0.927212,-1.241182 -1.393695,-2.204808 -0.829087,-1.712665 -0.83274,-1.80697 -0.162524,-4.1956 0.540085,-1.924849 1.029054,-2.737516 2.30347,-3.828369 0.889815,-0.761648 1.735298,-1.384814 1.878852,-1.384814 0.143553,0 0.509868,-0.465003 0.814032,-1.033339 0.762015,-1.423837 1.316076,-1.641011 4.994866,-1.957823 3.049353,-0.262607 3.227097,-0.232681 3.608266,0.607504 0.504962,1.113053 3.757974,2.312637 4.224476,1.557821 0.237386,-0.384099 0.711834,-0.390084 2.153126,-0.02716 2.15336,0.542223 3.7056,0.260451 4.258723,-0.773069 0.486586,-0.909198 -0.843765,-1.982197 -2.457614,-1.982197 -0.585453,0 -1.289053,-0.27062 -1.563558,-0.601377 -0.63941,-0.770443 -1.202755,-0.770443 -1.202755,0 0,0.888712 -0.460707,0.722815 -1.804133,-0.649652 -1.640632,-1.6761 -2.605969,-2.17586 -2.605969,-1.349125 0,0.456645 -0.175104,0.537412 -0.622408,0.287088 -0.670534,-0.375249 -2.985858,-0.171992 -2.985858,0.262122 0,0.144957 -0.784544,0.692134 -1.743433,1.215949 -2.190974,1.19687 -4.080804,0.947097 -3.641938,-0.481345 0.387806,-1.262249 0.441172,-1.289629 2.513549,-1.289629 1.394522,0 1.869526,-0.152797 1.869526,-0.601378 0,-0.775735 3.72772,-2.512767 4.809696,-2.241208 0.463359,0.116296 1.351628,-0.137677 2.018153,-0.577026 0.654786,-0.431611 1.010106,-0.79233 0.789601,-0.801596 -0.220505,-0.0093 0.05011,-0.274683 0.601377,-0.589813 0.989657,-0.565739 0.990921,-0.573143 0.10023,-0.587171 -0.496137,-0.0078 -0.902066,-0.206777 -0.902066,-0.442142 0,-0.235364 0.325186,-0.324725 0.722638,-0.198579 0.842694,0.267461 2.441138,-0.754001 1.948356,-1.245068 -0.184048,-0.183408 -2.348723,-0.326169 -4.81039,-0.317247 -7.896118,0.02862 -13.792001,2.498711 -19.561183,8.195201 -2.96138,2.924065 -3.734376,3.984204 -5.37508,7.371747 -2.338561,4.828397 -2.528887,6.676439 -0.888399,8.626253 0.732846,0.871031 1.102526,1.770603 1.102526,2.68287 0,1.248785 0.308549,1.581301 1.31414,1.416212 0.171515,-0.02816 0.411962,0.209706 0.534328,0.528585 0.122365,0.31888 0.471768,0.484122 0.776451,0.367204 0.718538,-0.275729 2.987938,1.339565 2.987938,2.12673 0,0.333391 -0.519716,2.080135 -1.154924,3.881654 -1.061448,3.01038 -1.118792,3.451438 -0.708505,5.449427 0.287846,1.401727 0.306458,2.220527 0.0524,2.305085 -0.780189,0.259674 -0.310512,3.362691 0.668672,4.417719 3.017667,3.251404 8.565211,6.4886 13.319322,7.772308 4.261491,1.150692 12.144321,0.885457 16.222058,-0.545822 z"
       id="path4269"
       inkscape:connector-curvature="0"
       transform="translate(-9.1552734e-5,963.77953)" />
  </g>
</svg>
