<?xml version="1.0" encoding="UTF-8" standalone="no"?>
<!-- Created with Inkscape (http://www.inkscape.org/) -->

<svg
   xmlns:dc="http://purl.org/dc/elements/1.1/"
   xmlns:cc="http://creativecommons.org/ns#"
   xmlns:rdf="http://www.w3.org/1999/02/22-rdf-syntax-ns#"
   xmlns:svg="http://www.w3.org/2000/svg"
   xmlns="http://www.w3.org/2000/svg"
   xmlns:sodipodi="http://sodipodi.sourceforge.net/DTD/sodipodi-0.dtd"
   xmlns:inkscape="http://www.inkscape.org/namespaces/inkscape"
   width="46mm"
   height="46mm"
   viewBox="0 0 162.99212 162.99212"
   id="svg4356"
   version="1.1"
   inkscape:version="0.91 r13725"
   sodipodi:docname="prof.svg">
  <defs
     id="defs4358">
    <pattern
       y="0"
       x="0"
       height="6"
       width="6"
       patternUnits="userSpaceOnUse"
       id="EMFhbasepattern" />
    <pattern
       y="0"
       x="0"
       height="6"
       width="6"
       patternUnits="userSpaceOnUse"
       id="EMFhbasepattern-4" />
  </defs>
  <sodipodi:namedview
     id="base"
     pagecolor="#ffffff"
     bordercolor="#666666"
     borderopacity="1.0"
     inkscape:pageopacity="0.0"
     inkscape:pageshadow="2"
     inkscape:zoom="3.9840983"
     inkscape:cx="99.548525"
     inkscape:cy="79.301368"
     inkscape:document-units="px"
     inkscape:current-layer="layer1"
     showgrid="false"
     showguides="true"
     inkscape:guide-bbox="true"
     inkscape:window-width="1920"
     inkscape:window-height="1027"
     inkscape:window-x="1912"
     inkscape:window-y="-8"
     inkscape:window-maximized="1">
    <sodipodi:guide
       position="16.872632,790.4828"
       orientation="1,0"
       id="guide4378" />
  </sodipodi:namedview>
  <metadata
     id="metadata4361">
    <rdf:RDF>
      <cc:Work
         rdf:about="">
        <dc:format>image/svg+xml</dc:format>
        <dc:type
           rdf:resource="http://purl.org/dc/dcmitype/StillImage" />
        <dc:title></dc:title>
      </cc:Work>
    </rdf:RDF>
  </metadata>
  <g
     inkscape:label="Capa 1"
     inkscape:groupmode="layer"
     id="layer1"
     style="opacity:1"
     transform="translate(0,-889.37007)">
    <path
       inkscape:connector-curvature="0"
       id="path4544"
       d="m 22.742035,971.02637 0.476354,-3.33509 0,-2.85807 0.952754,-5.71667 0.476404,-2.85808 0.952757,-2.85825 0.952738,-2.85808 0.952756,-2.38228 1.429108,-2.85809 0.952756,-2.38175 3.334603,-4.76368 3.334671,-4.76387 3.810955,-4.28738 3.811008,-3.81106 2.381915,-1.42895 2.381865,-1.90562 4.763796,-2.85824 2.381761,-1.42913 2.858111,-0.95264 5.240374,-1.90562 2.858113,-0.95263 2.858112,-0.47649 2.858598,-0.47632 2.858112,-0.47649 6.19306,-0.47632 5.716224,0.47632 6.193062,0.95281 2.38176,0.47649 2.858113,0.95263 2.858615,0.95281 2.85812,0.95281 2.38175,0.95264 2.38176,1.42913 5.24035,2.85824 4.28718,3.33457 4.28765,3.81106 3.81081,4.28738 1.42905,2.38193 1.90542,2.38194 2.85859,4.76368 1.42906,2.38175 0.9527,2.85809 1.90541,5.24036 0.95271,2.85825 0.47635,2.85808 0.47634,2.85859 0.47636,2.85808 0.47636,6.19316 0,2.85808 -0.47636,2.85807 -0.9527,5.71669 -0.47635,2.85806 -0.95271,2.85825 -0.9527,2.85861 -0.95271,2.85808 -0.9527,2.38176 -1.42906,2.38175 -2.85859,4.76408 -3.33447,4.7635 -3.81081,4.2875 -4.28765,3.8109 -2.38176,1.429 -1.90542,1.9054 -5.24035,2.8587 -2.38176,1.4291 -2.38175,0.9525 -5.716735,1.9055 -2.858113,0.9527 -2.38176,0.4764 -3.334463,0.4763 -2.858599,0.4764 -5.716224,0.4763 -6.19306,-0.4763 -5.71671,-0.9527 -2.858112,-0.4764 -2.858113,-0.9527 -2.858111,-0.9525 -2.382263,-0.953 -2.858111,-0.9525 -2.381761,-1.4291 -4.763796,-2.8587 -4.76378,-3.3344 -3.811008,-3.8109 -3.810955,-4.2875 -1.905511,-2.3818 -1.42916,-2.3817 -3.334603,-4.76408 -0.952756,-2.38175 -1.429108,-2.38176 -1.905494,-5.71669 -0.952757,-2.85825 -0.476404,-2.85806 -0.476351,-2.85808 -0.476403,-2.85861 -0.476354,-5.71615 z m -18.102259,0 0.4763869,-8.0986 0.476369,-3.81123 0.4763691,-3.81089 0.952757,-3.81072 0.9527549,-3.81139 1.429126,-3.3344 0.4763523,-1.90562 0.9527548,-1.42894 1.429161,-3.81106 1.905459,-2.85825 3.811007,-6.66932 4.287359,-5.7165 2.381915,-2.85824 2.381848,-2.85826 2.858267,-2.38176 2.858251,-2.38194 2.858268,-2.38193 2.858251,-1.90544 3.33462,-2.38193 3.334602,-1.90544 3.33462,-1.42913 3.334656,-1.42913 7.145417,-2.85825 3.334966,-0.9528 3.810818,-0.95263 3.810815,-0.47651 3.811301,-0.4763 8.098469,-0.47633 7.621631,0.47633 3.811304,0.4763 3.810815,0.47651 3.811324,0.95263 3.81082,0.9528 3.33446,1.42912 1.9054,0.47633 1.9059,0.9528 3.33446,1.42913 3.33446,1.42913 6.19307,4.28737 5.71622,4.28737 2.85859,2.38194 2.85811,2.38176 2.38177,2.85826 2.38224,2.85824 2.38176,2.85825 2.38176,2.85825 1.90541,3.33474 1.90541,3.33458 1.42955,2.85825 1.90542,3.81106 2.38176,6.66896 0.95269,3.81139 0.95271,3.81072 0.47636,3.81089 0.47633,3.81123 0.47636,8.0986 -0.47636,7.6216 -0.47633,3.81124 -0.47636,3.81088 -0.95271,3.81124 -0.95269,3.81088 -1.42906,3.33439 -0.47636,1.90544 -0.47634,1.42946 -1.90542,3.8109 -1.42955,3.3343 -3.81082,6.1933 -4.76352,5.7161 -2.38224,2.8587 -2.38177,2.858 -2.85811,2.3818 -2.85859,2.3822 -2.85811,2.3818 -2.85811,2.3818 -3.33447,1.9054 -2.8586,1.9054 -3.33446,1.4295 -3.33446,1.4292 -7.14576,2.858 -3.81082,0.9526 -3.811324,0.9529 -3.810815,0.4762 -3.811304,0.4764 -7.621631,0.4763 -8.098469,-0.4763 -3.811301,-0.4764 -3.810815,-0.4762 -3.810818,-0.9529 -3.334966,-0.9526 -3.810816,-1.4291 -1.905494,-0.4763 -1.429107,-0.9526 -3.334656,-1.4292 -3.33462,-1.4295 -6.669222,-3.8108 -5.716519,-4.7636 -2.858251,-2.3822 -2.858267,-2.3818 -2.381848,-2.858 -2.381915,-2.8587 -2.381847,-2.8581 -1.905512,-2.858 -1.905512,-3.3346 -1.905495,-2.8587 -1.905459,-3.3343 -1.429161,-3.8109 -2.8582331,-6.66929 -0.9527549,-3.81088 -0.952757,-3.81124 -0.4763691,-3.81088 -0.476369,-3.81124 -0.4763869,-7.6216 z"
       style="fill:#ffffff;fill-opacity:1;fill-rule:evenodd;stroke:none" />
    <path
       sodipodi:type="star"
       style="opacity:1;fill:#ffffff;fill-opacity:1;stroke:none;stroke-width:0.40000001;stroke-linejoin:round;stroke-miterlimit:0;stroke-dasharray:none;stroke-opacity:1"
       id="path4565"
       sodipodi:sides="5"
       sodipodi:cx="83.382088"
       sodipodi:cy="967.26422"
       sodipodi:r1="15.611883"
       sodipodi:r2="40.030468"
       sodipodi:arg1="0.7328151"
       sodipodi:arg2="1.3611336"
       inkscape:flatsided="false"
       inkscape:rounded="0"
       inkscape:randomized="0"
       d="m 94.986309,977.70802 -3.272679,28.71008 -14.678284,-24.8903 -28.316192,5.75939 19.13621,-21.65139 -14.22769,-25.15055 26.505113,11.50897 19.522996,-21.30328 -2.75515,28.76432 26.293567,11.9844 z"
       transform="matrix(-0.9923931,-0.13345971,0.14345522,-1.0032251,26.295638,1951.0971)" />
  </g>
</svg>
