<?xml version="1.0" encoding="UTF-8" standalone="no"?>
<!-- Created with Inkscape (http://www.inkscape.org/) -->

<svg
   xmlns:dc="http://purl.org/dc/elements/1.1/"
   xmlns:cc="http://creativecommons.org/ns#"
   xmlns:rdf="http://www.w3.org/1999/02/22-rdf-syntax-ns#"
   xmlns:svg="http://www.w3.org/2000/svg"
   xmlns="http://www.w3.org/2000/svg"
   xmlns:sodipodi="http://sodipodi.sourceforge.net/DTD/sodipodi-0.dtd"
   xmlns:inkscape="http://www.inkscape.org/namespaces/inkscape"
   width="210mm"
   height="210mm"
   viewBox="0 0 744.09449 744.09448"
   id="svg4142"
   version="1.1"
   inkscape:version="0.91 r13725"
   sodipodi:docname="icoactivas.svg">
  <defs
     id="defs4144">
    <pattern
       y="0"
       x="0"
       height="6"
       width="6"
       patternUnits="userSpaceOnUse"
       id="EMFhbasepattern" />
    <pattern
       y="0"
       x="0"
       height="6"
       width="6"
       patternUnits="userSpaceOnUse"
       id="EMFhbasepattern-4" />
    <pattern
       y="0"
       x="0"
       height="6"
       width="6"
       patternUnits="userSpaceOnUse"
       id="EMFhbasepattern-2" />
    <pattern
       y="0"
       x="0"
       height="6"
       width="6"
       patternUnits="userSpaceOnUse"
       id="EMFhbasepattern-7" />
    <pattern
       y="0"
       x="0"
       height="6"
       width="6"
       patternUnits="userSpaceOnUse"
       id="EMFhbasepattern-6" />
  </defs>
  <sodipodi:namedview
     id="base"
     pagecolor="#ffffff"
     bordercolor="#666666"
     borderopacity="1.0"
     inkscape:pageopacity="0.0"
     inkscape:pageshadow="2"
     inkscape:zoom="1.1853516"
     inkscape:cx="231.16082"
     inkscape:cy="517.81582"
     inkscape:document-units="px"
     inkscape:current-layer="layer1"
     showgrid="false"
     inkscape:window-width="1920"
     inkscape:window-height="1027"
     inkscape:window-x="1912"
     inkscape:window-y="-8"
     inkscape:window-maximized="1" />
  <metadata
     id="metadata4147">
    <rdf:RDF>
      <cc:Work
         rdf:about="">
        <dc:format>image/svg+xml</dc:format>
        <dc:type
           rdf:resource="http://purl.org/dc/dcmitype/StillImage" />
        <dc:title></dc:title>
      </cc:Work>
    </rdf:RDF>
  </metadata>
  <g
     inkscape:label="Capa 1"
     inkscape:groupmode="layer"
     id="layer1"
     transform="translate(0,-308.26772)">
    <path
       inkscape:connector-curvature="0"
       id="path4786"
       d="m 83.697907,527.69314 -1.117364,-6.70349 0,-6.70467 1.117364,-5.58624 1.117247,-6.7035 1.117374,-5.58624 2.234622,-6.70463 2.234622,-5.58624 2.234611,-6.70349 3.351827,-5.58738 4.46924,-5.58625 3.35187,-6.70348 4.46919,-5.58657 11.1731,-10.05572 5.58645,-5.58645 5.58661,-5.58661 13.40755,-8.93843 14.52504,-8.93836 15.64262,-8.93844 16.75873,-6.70381 17.87711,-6.70387 17.87711,-5.58643 10.05524,-2.23463 10.05638,-1.11737 20.11166,-3.35187 20.11047,-2.23461 20.11161,0 18.99436,0 18.99437,2.23461 17.87715,3.35187 8.93799,1.11737 7.82074,2.23463 16.75987,5.58643 14.52537,6.70387 14.52423,6.70381 12.29087,7.8211 11.17249,8.93844 10.05638,10.05569 4.46899,5.58661 3.35174,4.4692 3.35174,5.58648 3.35176,5.58649 2.23449,6.70381 2.2345,5.58624 1.11838,5.58625 1.11725,6.70463 0,6.70349 0,5.58624 0,6.70463 -1.11725,6.7035 -1.11838,5.58624 -2.2345,6.70348 -2.23449,5.58743 -3.35176,6.70349 -3.35174,5.58625 -3.35174,5.58623 -4.46899,5.58739 -4.47014,5.58624 -10.05524,11.17249 -5.58624,5.58738 -5.58624,4.46899 -13.40812,10.05523 -14.52538,8.93913 -15.64147,7.82075 -16.75987,7.82073 -17.87716,6.7035 -18.99436,4.47017 -8.93799,3.35175 -10.05523,1.11725 -20.11162,3.35174 -20.11161,2.2345 -20.11165,0 -20.11162,0 -17.87597,-2.2345 -17.87712,-3.35174 -8.93912,-2.23451 -8.93799,-2.23449 -15.64262,-4.47017 -15.64184,-6.7035 -13.40768,-6.70349 -12.2903,-7.82074 -11.17306,-8.93912 -10.05568,-10.05524 -4.46924,-5.58624 -3.351866,-4.47014 -3.351953,-5.58623 -3.351859,-6.7035 -2.234622,-5.58624 -2.234622,-5.58739 -1.117374,-6.70348 -1.117247,-5.58625 z"
       style="fill:#ffffff;fill-opacity:1;fill-rule:evenodd;stroke:none" />
    <path
       inkscape:connector-curvature="0"
       id="path4788"
       d="m 447.93838,360.09756 23.46335,0 12.29088,1.11725 11.17248,0 11.17362,2.23462 11.17249,1.11725 21.22891,4.46925 21.22885,5.58656 10.05524,3.35187 8.93913,3.35198 10.05524,3.35187 8.93913,4.46921 8.93798,4.46923 7.82074,4.46924 16.75991,11.17293 6.70349,5.58657 6.70463,5.58649 13.40698,12.2903 11.17363,12.2903 4.46899,7.82123 4.469,6.70382 3.35174,6.70348 4.46899,7.82188 2.2345,7.82075 2.23449,7.82073 2.23565,7.82188 1.11724,8.93799 1.11725,8.93799 0,8.93917 -1.11725,8.93799 -1.11724,8.93798 -2.23565,8.93913 -2.23449,8.93799 -6.70349,16.75986 -8.93799,16.75988 -5.58738,7.82073 -5.58624,7.82073 -6.70349,7.82193 -6.7035,7.82074 -7.82188,7.82074 -7.82073,6.70463 -8.93799,6.70349 -7.82192,6.70349 -10.05524,6.70349 -8.93913,6.70463 -21.22771,11.17249 -10.05638,5.58624 -11.17249,4.47014 -23.46336,8.93798 -12.29091,3.35175 -12.28974,4.46899 -13.40812,2.2345 -12.28973,3.35289 -13.40812,2.23449 -13.40812,2.2345 -17.87597,1.11725 -16.75988,1.11724 -16.75986,0 -16.75873,0 -99.44085,100.55697 37.98873,-109.49609 -13.40812,-3.35175 -12.28974,-4.46899 -12.29087,-3.35175 -11.17249,-5.58624 18.99437,0 18.99322,-2.2345 25.69899,-4.47013 13.40699,-2.2345 12.29091,-3.35174 13.40698,-3.35175 11.17363,-4.469 12.28973,-4.46899 11.17363,-4.46899 11.17248,-4.47014 11.17363,-5.58623 20.11047,-11.17249 10.05637,-6.70464 8.938,-5.58623 17.87711,-13.40699 7.82074,-7.82192 6.70462,-6.70349 7.82075,-7.82074 5.58624,-7.82187 6.70467,-7.82075 5.58624,-8.93798 8.93799,-16.75987 3.35175,-7.82074 3.35174,-8.93912 2.23449,-8.938 2.23565,-8.93917 1.11725,-8.93798 1.11724,-8.93799 -1.11724,-8.93913 0,-4.46899 0,-4.46899 -2.2345,-10.05638 -2.23564,-8.93799 -3.35175,-8.93831 -3.35174,-8.93847 -4.46899,-8.93845 -5.58625,-8.93843 -5.58624,-7.8211 -6.70467,-7.82106 -6.70349,-7.82112 -7.82074,-6.70381 -7.82188,-6.70385 -8.93799,-6.70383 -18.99436,-12.2903 -11.17248,-5.58661 -10.05638,-4.46912 z"
       style="fill:#ffffff;fill-opacity:1;fill-rule:evenodd;stroke:none" />
    <path
       inkscape:connector-curvature="0"
       id="path4790"
       d="m 42.357721,531.04488 -1.117332,-15.64265 2.234622,-16.75873 1.117289,-7.82188 2.234622,-7.82074 3.351901,-7.82074 3.351912,-7.82188 3.351953,-6.70349 4.469233,-7.82106 4.469117,-7.82123 5.586565,-6.70369 5.586491,-6.70386 6.703813,-6.70382 6.703865,-6.70385 6.703812,-6.70382 15.642176,-12.2903 8.93843,-5.58649 7.8211,-5.58657 18.99412,-10.05572 8.9386,-4.4692 10.05524,-4.46923 11.17363,-4.46925 10.05523,-4.46912 11.17362,-3.35194 11.17249,-2.23462 23.46336,-5.58649 11.17362,-2.23461 12.28974,-2.23462 12.29091,-1.11729 12.28974,0 11.17362,-1.11729 12.28973,0 11.17363,0 11.17248,1.11729 11.17362,1.11729 11.17249,1.11733 11.17367,2.23461 10.05523,2.23458 11.17248,2.23462 10.05638,3.35195 8.93799,3.35186 10.05638,3.35196 17.87597,7.8211 7.82188,5.58645 8.93799,4.46923 14.52537,10.05569 6.70349,5.58661 6.70349,6.70381 5.58738,5.58649 5.58625,6.70382 10.05523,13.40759 4.469,6.70381 3.35288,7.8212 3.35174,6.70373 2.23451,7.82131 2.23449,7.82073 1.11725,8.93913 0,15.64148 -1.11725,16.75987 -2.23449,7.82074 -2.23451,7.82192 -2.23449,7.82073 -3.35288,6.7035 -4.469,7.82188 -3.35175,7.82074 -5.58624,6.70349 -5.58623,7.82074 -5.58739,6.70463 -5.58625,6.70349 -6.70349,6.70349 -7.82073,6.70464 -15.64263,12.28972 -7.82073,5.58625 -8.93913,5.58742 -17.87712,10.05524 -10.05523,4.46899 -10.05524,4.46899 -10.05637,4.47014 -11.17249,3.35174 -10.05642,3.35175 -11.17248,3.35175 -23.46336,5.58624 -12.29087,2.23449 -11.17249,1.11725 -15.64261,2.23564 -15.64267,1.11725 -15.64148,0 -14.52536,-1.11725 -89.38399,90.50058 33.51928,-98.32246 -13.40811,-3.35174 -13.40736,-4.469 -13.40755,-4.46899 -11.17305,-5.58739 -12.29031,-6.70349 -5.5866,-3.35174 -5.58645,-3.35174 -10.055728,-6.7035 -8.938434,-7.82192 -8.938434,-7.82074 -7.821102,-8.93799 -6.703823,-8.93913 -6.703855,-8.93798 -4.469159,-10.05638 -4.469233,-10.05524 -2.234622,-11.17362 -2.234579,-11.17249 z"
       style="fill:#ffffff;fill-opacity:1;fill-rule:evenodd;stroke:none" />
  </g>
</svg>
