<?xml version="1.0" encoding="UTF-8" standalone="no"?>
<!-- Created with Inkscape (http://www.inkscape.org/) -->

<svg
   xmlns:dc="http://purl.org/dc/elements/1.1/"
   xmlns:cc="http://creativecommons.org/ns#"
   xmlns:rdf="http://www.w3.org/1999/02/22-rdf-syntax-ns#"
   xmlns:svg="http://www.w3.org/2000/svg"
   xmlns="http://www.w3.org/2000/svg"
   xmlns:sodipodi="http://sodipodi.sourceforge.net/DTD/sodipodi-0.dtd"
   xmlns:inkscape="http://www.inkscape.org/namespaces/inkscape"
   width="210mm"
   height="210mm"
   viewBox="0 0 744.09449 744.09448"
   id="svg4142"
   version="1.1"
   inkscape:version="0.91 r13725"
   sodipodi:docname="icoactua.svg">
  <defs
     id="defs4144">
    <pattern
       y="0"
       x="0"
       height="6"
       width="6"
       patternUnits="userSpaceOnUse"
       id="EMFhbasepattern" />
    <pattern
       y="0"
       x="0"
       height="6"
       width="6"
       patternUnits="userSpaceOnUse"
       id="EMFhbasepattern-4" />
  </defs>
  <sodipodi:namedview
     id="base"
     pagecolor="#ffffff"
     bordercolor="#666666"
     borderopacity="1.0"
     inkscape:pageopacity="0.0"
     inkscape:pageshadow="2"
     inkscape:zoom="1.1853516"
     inkscape:cx="231.16082"
     inkscape:cy="452.50947"
     inkscape:document-units="px"
     inkscape:current-layer="layer1"
     showgrid="false"
     inkscape:window-width="1920"
     inkscape:window-height="1027"
     inkscape:window-x="1912"
     inkscape:window-y="-8"
     inkscape:window-maximized="1" />
  <metadata
     id="metadata4147">
    <rdf:RDF>
      <cc:Work
         rdf:about="">
        <dc:format>image/svg+xml</dc:format>
        <dc:type
           rdf:resource="http://purl.org/dc/dcmitype/StillImage" />
        <dc:title></dc:title>
      </cc:Work>
    </rdf:RDF>
  </metadata>
  <g
     inkscape:label="Capa 1"
     inkscape:groupmode="layer"
     id="layer1"
     transform="translate(0,-308.26772)">
    <path
       inkscape:connector-curvature="0"
       id="path4720"
       d="m 294.50934,593.43686 73.15248,-78.13987 24.93717,-26.60067 23.27639,24.9382 71.48995,69.82747 0,63.17761 -68.165,-64.84009 0,182.88118 -56.52594,0 0,-182.88118 -68.16505,69.82753 0,-58.19018 z"
       style="fill:#ffffff;fill-opacity:1;fill-rule:evenodd;stroke:none" />
    <path
       inkscape:connector-curvature="0"
       id="path4722"
       d="m 673.5714,618.37577 0,4.98744 0,13.30152 -1.66248,14.96231 -1.66249,14.96229 -1.66247,13.30152 -3.32494,13.29983 -3.32497,14.964 -4.98744,13.29983 -4.98741,11.63734 -4.98745,13.30157 -6.65161,11.63735 -6.64992,13.29982 -8.31238,11.63905 -6.6499,9.97485 -9.97487,11.63735 -8.3141,9.97657 -8.31239,9.97488 -9.97486,9.97486 -11.63904,8.31239 -9.97487,9.97657 -11.63734,6.64992 -11.63734,8.31238 -11.63911,6.6499 -11.63735,6.65162 -13.30152,6.6499 -11.63735,4.98745 -13.29982,4.98742 -13.30153,3.32496 -13.29982,3.32496 -14.96229,3.32494 -13.30152,1.66249 -14.96231,1.66248 -14.96398,0 -44.88868,-44.8886 44.88868,-49.87605 9.97655,-1.66247 9.97487,0 18.28725,-3.32494 8.31408,-3.32667 9.97489,-1.66247 16.62477,-6.64991 16.62648,-8.3124 14.96229,-9.97486 8.31409,-6.64991 6.64992,-4.98914 6.64992,-6.6499 6.6499,-4.98744 6.6499,-8.31239 4.98745,-6.64991 11.6391,-14.96406 3.32496,-6.6499 4.98742,-8.3124 8.31241,-16.62647 6.6499,-16.62479 3.32666,-18.28895 3.32494,-19.94974 1.66248,-9.97657 0,-8.31238 0,-1.66248 36.57621,38.23869 9.97487,9.97657 9.97487,-11.63904 38.23869,-39.90118 z"
       style="fill:#ffffff;fill-opacity:1;fill-rule:evenodd;stroke:none" />
    <path
       inkscape:connector-curvature="0"
       id="path4724"
       d="m 365.99936,910.98553 -13.30159,-1.66248 -13.29982,-1.66249 -11.63735,-1.66246 -13.30152,-3.32496 -24.93888,-8.31239 -23.27504,-8.31239 -11.63784,-6.65161 -11.63789,-4.98744 -21.61337,-13.29982 -9.97524,-8.31238 -9.9754,-6.64992 -8.31287,-8.31409 -9.97523,-9.97487 -16.62562,-18.28725 -8.31289,-9.97656 -8.31276,-9.97486 -6.65027,-9.97489 -6.65022,-9.97656 -11.63788,-23.27469 -4.98761,-11.63911 -4.98775,-11.63735 -8.31274,-24.93884 -4.98769,-24.93717 -1.662581,-13.30153 -1.662543,-13.29982 43.226554,-44.88859 53.20189,53.20097 3.32513,14.96401 4.98757,14.9623 4.98779,14.96228 8.31276,14.96401 6.65021,13.29983 9.97541,13.30159 9.97535,11.63734 9.97524,9.97487 13.30049,9.97486 11.63769,9.97657 13.30154,8.31238 14.9623,6.64992 13.29982,6.6499 14.96399,4.98914 16.62479,3.32497 16.62653,1.66246 -36.57626,41.56365 -9.97656,8.31238 9.97656,9.97487 34.9138,36.57622 z"
       style="fill:#ffffff;fill-opacity:1;fill-rule:evenodd;stroke:none" />
    <path
       inkscape:connector-curvature="0"
       id="path4726"
       d="m 96.664224,625.02569 0,-1.66248 0,-14.9623 1.662542,-14.96405 1.662543,-14.96231 3.325131,-13.29983 1.6626,-13.30152 4.98761,-13.29983 3.32515,-13.3015 4.98767,-13.29983 6.65021,-13.30032 6.65028,-11.63807 6.65027,-13.3003 6.65022,-11.63801 8.31275,-9.97523 8.31276,-11.63802 18.28822,-19.95064 9.97524,-9.97535 9.9754,-8.31289 11.638,-8.31273 9.97524,-8.31276 11.63802,-8.31288 11.63784,-6.65028 13.30055,-6.65008 11.638,-4.98774 13.29983,-6.65027 13.30153,-3.32508 13.29982,-4.98768 13.29981,-3.32514 14.964,-3.32513 13.29983,-1.66255 14.96407,-1.66254 14.96228,0 -39.90122,39.90134 -9.97486,9.97536 9.97486,9.97543 38.23874,36.57619 -8.31239,0 -9.97486,1.66267 -18.28901,3.32513 -9.97486,1.66248 -8.3141,3.32514 -18.28725,6.65022 -16.62649,8.31275 -14.96228,9.97535 -6.64992,4.98779 -6.65047,4.98763 -8.31286,6.65022 -4.98762,6.65027 -6.65029,6.65027 -6.6502,6.65021 -9.97541,14.96267 -4.98756,6.64992 -4.98761,8.31408 -8.31294,16.62479 -4.98762,18.28894 -4.98773,18.28725 -3.32514,18.28903 0,9.97486 0,9.97487 0,3.32497 -41.56383,-39.90125 -9.9754,-9.97486 -9.97536,9.97486 -34.913736,38.23876 z"
       style="fill:#ffffff;fill-opacity:1;fill-rule:evenodd;stroke:none" />
    <path
       inkscape:connector-curvature="0"
       id="path4728"
       d="m 625.35784,644.97712 -49.87604,-49.87778 -1.66246,-16.62479 -4.98914,-14.9623 -4.98742,-14.96399 -6.64992,-14.96231 -8.31239,-13.30153 -9.97486,-13.29982 -9.97663,-13.30067 -4.98744,-4.98761 -4.98744,-4.98762 -13.29981,-11.63802 -11.63904,-8.31276 -13.29983,-8.31286 -14.96401,-8.31275 -14.9623,-4.98761 -14.96229,-4.98775 -16.62649,-4.98761 -16.62478,-1.66267 -46.55283,-46.55162 49.87779,-49.8767 13.29982,1.66254 11.63735,1.66255 13.30153,3.32513 13.29982,1.6626 11.63905,4.98767 11.63734,3.32508 13.29983,4.98767 11.63904,4.98773 11.63735,4.98764 9.97486,6.65027 21.61397,13.30049 9.97486,6.65028 9.97487,8.31275 18.28895,16.62562 18.28727,18.2881 6.6516,9.97536 8.3124,9.97523 6.6499,9.97535 6.6499,9.97542 11.63904,23.27589 4.98745,11.63784 4.98744,11.63735 4.98743,11.63904 3.32495,13.29983 4.98743,24.93885 3.32496,13.29982 1.66248,11.63735 -1.66248,0 -46.55108,48.21532 z"
       style="fill:#ffffff;fill-opacity:1;fill-rule:evenodd;stroke:none" />
  </g>
</svg>
