<?xml version="1.0" encoding="UTF-8" standalone="no"?>
<!-- Created with Inkscape (http://www.inkscape.org/) -->

<svg
   xmlns:dc="http://purl.org/dc/elements/1.1/"
   xmlns:cc="http://creativecommons.org/ns#"
   xmlns:rdf="http://www.w3.org/1999/02/22-rdf-syntax-ns#"
   xmlns:svg="http://www.w3.org/2000/svg"
   xmlns="http://www.w3.org/2000/svg"
   xmlns:sodipodi="http://sodipodi.sourceforge.net/DTD/sodipodi-0.dtd"
   xmlns:inkscape="http://www.inkscape.org/namespaces/inkscape"
   width="210mm"
   height="210mm"
   viewBox="0 0 744.09449 744.09448"
   id="svg4142"
   version="1.1"
   inkscape:version="0.91 r13725"
   sodipodi:docname="icofactu.svg">
  <defs
     id="defs4144">
    <pattern
       y="0"
       x="0"
       height="6"
       width="6"
       patternUnits="userSpaceOnUse"
       id="EMFhbasepattern" />
    <pattern
       y="0"
       x="0"
       height="6"
       width="6"
       patternUnits="userSpaceOnUse"
       id="EMFhbasepattern-4" />
    <pattern
       y="0"
       x="0"
       height="6"
       width="6"
       patternUnits="userSpaceOnUse"
       id="EMFhbasepattern-2" />
  </defs>
  <sodipodi:namedview
     id="base"
     pagecolor="#ffffff"
     bordercolor="#666666"
     borderopacity="1.0"
     inkscape:pageopacity="0.0"
     inkscape:pageshadow="2"
     inkscape:zoom="1.1853516"
     inkscape:cx="231.16082"
     inkscape:cy="517.81582"
     inkscape:document-units="px"
     inkscape:current-layer="layer1"
     showgrid="false"
     inkscape:window-width="1920"
     inkscape:window-height="1027"
     inkscape:window-x="1912"
     inkscape:window-y="-8"
     inkscape:window-maximized="1" />
  <metadata
     id="metadata4147">
    <rdf:RDF>
      <cc:Work
         rdf:about="">
        <dc:format>image/svg+xml</dc:format>
        <dc:type
           rdf:resource="http://purl.org/dc/dcmitype/StillImage" />
        <dc:title></dc:title>
      </cc:Work>
    </rdf:RDF>
  </metadata>
  <g
     inkscape:label="Capa 1"
     inkscape:groupmode="layer"
     id="layer1"
     transform="translate(0,-308.26772)">
    <path
       inkscape:connector-curvature="0"
       id="path4745"
       d="m 227.49379,635.25128 0,-4.37541 1.09398,-2.18886 0,-1.09386 1.09385,-2.1877 2.18783,-2.18771 1.09393,-1.09385 2.18783,-1.09386 3.28168,-3.28155 4.37565,-1.09386 5.46946,-2.1877 5.46952,0 234.09591,0 5.46927,0 5.47043,2.1877 4.37541,1.09386 3.28156,3.28155 3.28156,2.18771 2.18771,4.37541 2.1877,3.28272 0,4.37541 0,4.37539 -1.09385,2.18773 -1.09385,1.09386 -1.09386,2.18771 -1.09385,2.18771 -1.09385,1.09385 -2.18771,1.09386 -3.28156,3.28267 -4.37541,1.09386 -5.47043,2.1877 -5.46927,0 -234.09591,0 -5.46952,0 -5.46946,-2.1877 -4.37565,-1.09386 -3.28168,-3.28267 -3.28176,-2.18771 -3.28168,-4.37542 -1.09398,-3.28156 0,-4.37542 z"
       style="fill:#ffffff;fill-opacity:1;fill-rule:evenodd;stroke:none" />
    <path
       inkscape:connector-curvature="0"
       id="path4747"
       d="m 191.39495,915.29128 -5.46963,0 -5.46946,-1.09385 -5.46951,-1.09386 -4.37566,-2.1877 -5.46958,-2.18771 -4.37565,-2.18882 -4.37554,-3.28156 -3.28176,-4.37541 -3.28168,-3.28156 -3.28176,-4.37542 -3.28172,-4.37542 -2.18783,-4.37653 -2.18782,-5.46927 -1.0939,-5.46926 -1.09389,-5.46927 0,-5.47042 0,-466.00369 0,-5.46958 1.09389,-5.46951 1.0939,-5.46947 2.18782,-4.37565 2.18783,-5.46963 3.28172,-4.37562 3.28176,-4.37552 3.28168,-3.28181 3.28176,-3.28163 4.37554,-3.28177 4.37565,-3.28176 5.46958,-2.18779 4.37566,-2.18783 5.46951,-1.09388 5.46946,-1.09389 5.46963,0 133.45644,1.09389 0,37.19289 -125.79915,-1.09398 -5.46946,0 -4.37566,2.18783 -2.18782,1.09386 -2.18783,1.09393 -3.28176,3.28169 -3.28168,3.28179 -2.18783,4.37565 -2.18782,4.37562 0,5.46951 0,450.68937 0,5.46927 2.18782,4.37657 1.09386,2.18771 1.09397,2.18771 3.28168,4.37541 3.28176,3.28156 4.37565,2.1877 4.37566,1.09386 5.46946,1.09385 332.54761,0 5.46927,-1.09385 4.37541,-1.09386 2.18882,-1.09385 2.18771,-1.09385 4.37541,-3.28156 3.28157,-4.37541 2.18771,-4.37542 1.09385,-4.37657 1.09385,-5.46927 0,-450.68937 -1.09385,-5.46951 -1.09385,-4.37562 -1.09386,-2.18783 -1.09385,-2.18782 -3.28157,-3.28179 -4.37541,-3.28169 -4.37653,-2.18779 -4.37541,-2.18783 -5.46927,0 -103.9206,1.09398 1.09385,-38.28678 110.48372,0 5.47038,0 5.46927,1.09389 5.46928,1.09388 5.46926,2.18783 4.37653,2.18779 4.37542,3.28176 4.37541,3.28177 4.37541,3.28163 3.28157,3.28181 3.28156,4.37552 2.18771,4.37562 2.18882,5.46963 2.18771,4.37565 1.09385,5.46947 1.09385,5.46951 0,5.46958 0,466.00369 0,5.47042 -1.09385,5.46927 -1.09385,5.46926 -2.18771,5.46927 -2.18882,4.37653 -2.18771,4.37542 -3.28156,4.37542 -3.28157,3.28156 -4.37541,4.37541 -4.37541,3.28156 -4.37542,2.18882 -4.37653,2.18771 -5.46926,2.1877 -5.46928,1.09386 -5.46927,1.09385 -5.47038,0 -347.86187,0 z"
       style="fill:#ffffff;fill-opacity:1;fill-rule:evenodd;stroke:none" />
    <path
       inkscape:connector-curvature="0"
       id="path4749"
       d="m 225.30597,522.57871 1.09397,-4.37542 0,-1.09385 1.09385,-2.18772 1.09398,-2.18882 1.09385,-1.09385 2.18783,-2.18771 1.09393,-1.09385 4.37553,-2.18771 4.37565,-2.1877 5.46959,-1.09386 4.37566,-1.09385 235.18976,0 5.46928,1.09385 4.37657,1.09386 4.37541,2.1877 4.37542,2.18771 3.28156,3.28156 2.1877,3.28267 2.18771,3.28157 0,4.37542 0,4.37541 -1.09385,2.18771 -1.09386,2.1877 -1.09385,1.09386 -1.09385,2.1877 -1.09386,1.09386 -2.1877,2.18886 -4.37542,2.18771 -4.37541,2.1877 -4.37657,1.09386 -5.46928,0 -235.18976,0 -4.37566,0 -5.46959,-1.09386 -4.37565,-2.1877 -4.37553,-2.18771 -3.28176,-3.28272 -2.18783,-3.28156 -1.09385,-4.37541 -1.09397,-4.37541 z"
       style="fill:#ffffff;fill-opacity:1;fill-rule:evenodd;stroke:none" />
  </g>
</svg>
