<?xml version="1.0" encoding="UTF-8" standalone="no"?>
<!-- Created with Inkscape (http://www.inkscape.org/) -->

<svg
   xmlns:dc="http://purl.org/dc/elements/1.1/"
   xmlns:cc="http://creativecommons.org/ns#"
   xmlns:rdf="http://www.w3.org/1999/02/22-rdf-syntax-ns#"
   xmlns:svg="http://www.w3.org/2000/svg"
   xmlns="http://www.w3.org/2000/svg"
   xmlns:sodipodi="http://sodipodi.sourceforge.net/DTD/sodipodi-0.dtd"
   xmlns:inkscape="http://www.inkscape.org/namespaces/inkscape"
   width="210mm"
   height="210mm"
   viewBox="0 0 744.09449 744.09448"
   id="svg4142"
   version="1.1"
   inkscape:version="0.91 r13725"
   sodipodi:docname="icomod.svg">
  <defs
     id="defs4144">
    <pattern
       y="0"
       x="0"
       height="6"
       width="6"
       patternUnits="userSpaceOnUse"
       id="EMFhbasepattern" />
  </defs>
  <sodipodi:namedview
     id="base"
     pagecolor="#ffffff"
     bordercolor="#666666"
     borderopacity="1.0"
     inkscape:pageopacity="0.0"
     inkscape:pageshadow="2"
     inkscape:zoom="1.1853516"
     inkscape:cx="231.16082"
     inkscape:cy="452.50947"
     inkscape:document-units="px"
     inkscape:current-layer="layer1"
     showgrid="false"
     inkscape:window-width="1920"
     inkscape:window-height="1027"
     inkscape:window-x="1912"
     inkscape:window-y="-8"
     inkscape:window-maximized="1" />
  <metadata
     id="metadata4147">
    <rdf:RDF>
      <cc:Work
         rdf:about="">
        <dc:format>image/svg+xml</dc:format>
        <dc:type
           rdf:resource="http://purl.org/dc/dcmitype/StillImage" />
        <dc:title></dc:title>
      </cc:Work>
    </rdf:RDF>
  </metadata>
  <g
     inkscape:label="Capa 1"
     inkscape:groupmode="layer"
     id="layer1"
     transform="translate(0,-308.26772)">
    <path
       inkscape:connector-curvature="0"
       id="path4695"
       d="m 119.36121,657.47038 0,-4.18357 2.0919,-4.18359 1.04592,-1.0459 1.04601,-2.09179 3.1378,-3.13771 3.1378,-2.09284 4.18377,-2.0918 5.22994,-1.04589 5.22949,-1.0459 143.29536,0 5.22949,1.0459 4.18359,1.04589 4.18358,2.0918 4.18359,2.09284 3.13876,3.13771 2.09179,3.13769 2.0918,4.18359 0,4.18357 0,4.18359 -2.0918,3.13876 -1.0459,2.0918 -1.04589,2.09178 -3.13876,3.13771 -4.18359,2.09179 -4.18358,2.09179 -4.18359,1.0459 -5.22949,0 -143.29536,0 -5.22949,0 -5.22994,-1.0459 -4.18377,-2.09179 -3.1378,-2.09179 -3.1378,-3.13771 -2.09193,-4.18358 -2.0919,-3.13876 0,-4.18359 z"
       style="fill:#ffffff;fill-opacity:1;fill-rule:evenodd;stroke:none" />
    <path
       inkscape:connector-curvature="0"
       id="path4697"
       d="m 122.49903,566.47306 0,-4.18358 2.0919,-3.1377 1.04601,-2.09178 1.0459,-2.0918 1.04589,-1.04696 2.09191,-2.09179 2.0919,-1.0459 1.04598,-1.0459 4.18381,-2.0918 5.22972,-1.04589 5.22948,0 195.59237,0 5.22948,0 4.18467,1.04589 4.18357,2.0918 4.18359,2.0918 3.13769,3.13875 2.09179,4.18358 1.04589,3.1377 1.04592,4.18358 -1.04592,4.18359 -1.04589,4.18359 -1.04589,1.04589 -1.0459,2.09287 -2.0918,1.04589 -1.04589,2.0918 -2.09179,1.04589 -2.0918,1.0459 -4.18357,2.09179 -4.18467,1.0459 -5.22948,0 -195.59237,0 -5.22948,0 -5.22972,-1.0459 -4.18381,-2.09179 -3.13788,-2.09179 -3.1378,-3.13769 -2.09191,-3.13876 -2.0919,-4.18359 0,-4.18359 z"
       style="fill:#ffffff;fill-opacity:1;fill-rule:evenodd;stroke:none" />
    <path
       inkscape:connector-curvature="0"
       id="path4699"
       d="m 118.31524,466.06267 0,-4.18466 1.04597,-1.04589 1.0459,-2.0918 1.046,-2.09179 1.04592,-1.04589 1.04601,-2.0918 2.0919,-1.04589 4.1837,-2.09203 4.18377,-2.09187 4.18381,-1.0459 5.22973,-1.04601 317.96765,0 5.23056,1.04601 4.18359,1.0459 4.18359,2.09187 4.18357,2.09203 3.13771,3.13769 2.09178,3.13768 1.047,3.13769 1.04591,4.18466 -1.04591,4.18358 0,2.09179 -1.047,2.09181 -1.04589,1.0459 -1.04589,2.09178 -2.09179,1.04591 -1.04592,2.09179 -4.18357,2.09178 -4.18359,2.0918 -4.18359,1.0459 -5.23056,0 -317.96765,0 -5.22973,0 -4.18381,-1.0459 -4.18377,-2.0918 -4.1837,-2.09178 -3.13791,-3.1377 -2.09192,-3.13768 -2.09187,-4.1836 0,-4.18358 z"
       style="fill:#ffffff;fill-opacity:1;fill-rule:evenodd;stroke:none" />
    <path
       inkscape:connector-curvature="0"
       id="path4701"
       d="m 31.501616,395.98374 0,-5.22982 1.04593,-5.22968 1.045944,-5.22971 2.0919,-4.18381 2.091874,-5.2298 3.137883,-4.18381 3.137843,-4.1837 3.137805,-3.13788 3.137909,-4.18382 4.18371,-2.09187 4.183773,-3.13784 5.229823,-2.09191 4.183826,-2.0919 5.229667,-1.04595 5.229717,-1.04593 5.229783,0 445.573137,0 5.23054,0 5.22949,1.04593 5.22948,1.04595 5.22948,2.0919 4.18466,2.09191 4.18359,3.13784 4.18358,2.09187 3.13769,4.18382 4.1836,3.13788 3.13768,4.1837 2.0929,4.18381 2.0918,5.2298 2.09179,4.18381 1.04589,5.22971 1.0459,5.22968 0,5.22982 0,34.51619 -34.51676,26.1486 0,-53.3432 -1.0459,-5.22972 -1.0459,-4.18377 -1.04589,-2.09191 -1.04589,-2.0919 -3.1377,-4.18379 -4.18358,-2.09191 -4.1836,-2.09191 -4.18464,-2.0919 -5.22949,0 -430.930239,0 -5.229705,0 -4.183813,2.0919 -2.091874,1.04591 -2.091913,1.046 -4.183813,2.09191 -2.091901,4.18379 -3.137766,4.18381 -1.046022,4.18377 0,5.22972 0,317.968 0,5.22949 1.046022,4.18358 1.045892,2.09287 2.091874,2.09179 2.091901,4.18358 4.183813,2.09179 4.183787,3.13769 4.183813,1.0459 5.229705,0 430.930239,0 5.22949,0 4.18464,-1.0459 2.0918,-1.04589 2.0918,-2.0918 4.18358,-2.09179 3.1377,-4.18358 2.09178,-4.18466 1.0459,-4.18358 1.0459,-5.22949 0,-72.17011 34.51676,-26.14849 0,105.63987 0,5.23056 -1.0459,5.22948 -1.04589,5.22948 -2.09179,5.22949 -2.0918,4.18465 -2.0929,4.18358 -3.13768,4.1836 -4.1836,3.13768 -3.13769,4.18359 -4.18358,3.13769 -4.18359,2.09179 -4.18466,2.09287 -5.22948,2.09179 -5.22948,1.0459 -5.22949,1.04589 -5.23054,0 -445.573137,0 -5.229783,0 -5.229717,-1.04589 -5.229667,-1.0459 -4.183826,-2.09179 -5.229823,-2.09287 -4.183773,-2.09179 -4.18371,-3.13769 -3.137909,-4.18359 -3.137805,-3.13768 -3.137843,-4.1836 -3.137883,-4.18358 -2.091874,-4.18465 -2.0919,-5.22949 -1.045944,-5.22948 -1.04593,-5.22948 0,-5.23056 0,-332.61086 z"
       style="fill:#ffffff;fill-opacity:1;fill-rule:evenodd;stroke:none" />
    <path
       inkscape:connector-curvature="0"
       id="path4703"
       d="m 372.48009,613.54059 280.31431,-210.23526 64.84883,86.81403 -279.26842,210.23494 -1.0459,-1.04591 0,1.04591 -75.30781,-10.45898 10.45899,-75.30883 1.04589,0 -1.04589,-1.0459 z"
       style="fill:#ffffff;fill-opacity:1;fill-rule:evenodd;stroke:none" />
  </g>
</svg>
