<?xml version="1.0" encoding="UTF-8" standalone="no"?>
<!-- Created with Inkscape (http://www.inkscape.org/) -->

<svg
   xmlns:dc="http://purl.org/dc/elements/1.1/"
   xmlns:cc="http://creativecommons.org/ns#"
   xmlns:rdf="http://www.w3.org/1999/02/22-rdf-syntax-ns#"
   xmlns:svg="http://www.w3.org/2000/svg"
   xmlns="http://www.w3.org/2000/svg"
   xmlns:sodipodi="http://sodipodi.sourceforge.net/DTD/sodipodi-0.dtd"
   xmlns:inkscape="http://www.inkscape.org/namespaces/inkscape"
   width="210mm"
   height="210mm"
   viewBox="0 0 744.09449 744.09448"
   id="svg2"
   version="1.1"
   inkscape:version="0.91 r13725"
   sodipodi:docname="iconoborrar.svg">
  <defs
     id="defs4">
    <pattern
       y="0"
       x="0"
       height="6"
       width="6"
       patternUnits="userSpaceOnUse"
       id="EMFhbasepattern" />
    <pattern
       y="0"
       x="0"
       height="6"
       width="6"
       patternUnits="userSpaceOnUse"
       id="EMFhbasepattern-6" />
    <pattern
       y="0"
       x="0"
       height="6"
       width="6"
       patternUnits="userSpaceOnUse"
       id="EMFhbasepattern-7" />
  </defs>
  <sodipodi:namedview
     id="base"
     pagecolor="#ffffff"
     bordercolor="#666666"
     borderopacity="1.0"
     inkscape:pageopacity="0.0"
     inkscape:pageshadow="2"
     inkscape:zoom="0.41908506"
     inkscape:cx="577.45059"
     inkscape:cy="646.94094"
     inkscape:document-units="px"
     inkscape:current-layer="layer1"
     showgrid="false"
     inkscape:window-width="1920"
     inkscape:window-height="1027"
     inkscape:window-x="1912"
     inkscape:window-y="-8"
     inkscape:window-maximized="1" />
  <metadata
     id="metadata7">
    <rdf:RDF>
      <cc:Work
         rdf:about="">
        <dc:format>image/svg+xml</dc:format>
        <dc:type
           rdf:resource="http://purl.org/dc/dcmitype/StillImage" />
        <dc:title></dc:title>
      </cc:Work>
    </rdf:RDF>
  </metadata>
  <g
     inkscape:label="Capa 1"
     inkscape:groupmode="layer"
     id="layer1"
     transform="translate(0,-308.26772)">
    <path
       inkscape:connector-curvature="0"
       id="path4173"
       d="m 426.7419,701.46538 45.42766,44.6951 45.42778,-44.6951 6.59404,4.39601 5.86152,5.86136 5.12926,5.86211 2.93083,2.93067 2.1978,3.66334 -45.42779,45.42776 45.42779,45.42776 -5.12863,6.59477 -5.12926,5.86136 -5.86152,5.12868 -3.66334,2.93068 -2.9307,2.19876 -45.42778,-45.42776 -45.42766,45.42776 -6.5948,-5.12944 -5.8614,-5.12868 -5.86139,-5.86136 -2.1987,-3.66409 -2.19805,-2.93068 45.42778,-45.42776 -45.42778,-45.42776 4.39675,-6.59401 5.86139,-5.86211 5.8614,-5.86136 2.93146,-2.198 3.66334,-2.19801 z"
       style="fill:#003366;fill-opacity:1;fill-rule:nonzero;stroke:none" />
    <path
       inkscape:connector-curvature="0"
       id="path4175"
       d="m 232.57472,543.20131 252.0509,0 0,170.72019 -12.45606,12.45539 -7.32745,-6.59403 0,-158.99674 -212.48378,0 0,212.48386 168.52141,0 -16.85218,16.85288 -171.45284,0 0,-246.92155 z"
       style="fill:#003366;fill-opacity:1;fill-rule:evenodd;stroke:none" />
    <path
       inkscape:connector-curvature="0"
       id="path4177"
       d="m 126.33242,681.68257 0,-13.1888 0.73267,-12.45615 0.73341,-6.59477 1.46534,-5.86135 0.73267,-6.59402 1.46535,-5.86211 2.198,-12.45612 3.66334,-11.7227 3.66335,-11.72349 4.39676,-10.99078 5.12869,-10.99004 5.86135,-10.99078 5.86213,-10.25812 6.59402,-10.25736 6.59477,-10.25812 7.32669,-8.7928 8.06011,-9.52471 8.79203,-8.79277 8.06011,-8.05936 9.5247,-8.06011 9.52545,-7.3267 4.39601,-3.66409 5.12946,-2.93068 10.25737,-6.59401 10.25811,-5.86214 5.12863,-2.93067 5.86216,-2.93068 10.99002,-5.12868 5.86216,-2.19802 5.12862,-2.19875 11.72355,-3.66334 5.86127,-2.19801 5.8614,-1.46534 12.45607,-2.93068 12.45619,-2.198 12.45607,-1.46609 12.4562,-0.73267 13.18884,-0.73266 12.4553,0.73266 13.18884,0.73267 5.86203,0.73342 6.59404,0.73267 5.8614,1.46534 5.86216,0.73266 12.45606,2.93068 11.72267,3.66335 11.72355,3.66334 11.72343,4.39677 10.99065,5.12868 10.25738,5.86135 10.99079,5.86214 9.52562,6.59401 10.25725,6.59477 9.5255,7.3267 8.79197,8.06011 8.79273,8.05936 8.05957,8.79277 8.06009,9.52471 7.32668,8.7928 3.66398,5.12868 3.66334,5.12944 5.86139,10.25736 6.59493,10.25812 2.93044,5.12868 2.19806,5.8621 5.12862,10.99004 2.19895,5.12944 2.1978,5.86134 4.39624,11.72349 1.46528,5.86134 1.46516,5.86136 2.9307,12.45612 2.19818,12.45613 1.46605,12.45612 0.73264,12.45615 0.73252,13.1888 -0.73252,12.45537 -0.73264,12.45612 -0.73264,6.59478 -0.73341,5.86135 -0.73264,6.59403 -1.46554,5.86209 -2.9307,12.45615 -2.93044,11.72271 -4.39624,11.72345 -4.39675,10.99079 -5.12862,10.99004 -5.1285,10.99079 -6.59493,10.25814 -5.86139,10.25812 -7.32732,10.25736 -7.32668,9.52545 -8.06009,8.79203 -8.05957,8.79278 -8.79273,8.05936 -8.79197,8.06011 -9.5255,7.32668 -5.12862,3.66413 -5.12863,2.93067 -9.52562,6.59403 -10.99079,5.86209 -5.12862,2.93069 -5.12876,2.93067 -10.99065,5.12869 -5.86216,2.19875 -5.86127,2.19801 -11.72355,3.66334 -5.86127,2.19801 -5.8614,1.46534 -12.45606,2.93067 -11.72356,2.19802 -12.45607,1.46607 -13.18884,0.73268 -12.4553,0.73267 -13.18884,-0.73267 -12.4562,-0.73268 -6.5948,-0.73267 -5.86127,-0.7334 -6.59403,-1.46535 -5.86216,-0.73267 -12.45607,-2.93067 -11.72267,-3.66335 -11.72355,-3.66334 -10.99078,-4.39676 -10.99002,-5.12869 -10.99079,-5.86136 -10.25811,-5.86209 -10.25737,-6.59403 -9.52547,-6.5948 -9.52545,-7.32668 -9.5247,-8.06011 -8.06011,-8.05936 -8.79203,-8.79278 -8.06011,-8.79203 -7.32669,-9.52545 -2.93143,-5.12869 -3.66334,-5.12867 -6.59402,-10.25812 -5.86213,-10.25814 -2.93068,-5.12869 -2.93067,-5.8621 -5.12869,-10.99004 -2.198,-5.12943 -2.19876,-5.86136 -3.66335,-11.72345 -1.46533,-5.86135 -2.19801,-5.86136 -2.198,-12.45615 -2.19802,-12.45612 -2.19875,-12.45613 -0.73267,-12.45612 0,-12.45537 z m -84.260719,0 0.73269,-17.58558 0.7327,-16.85215 1.46542,-8.79202 0.7327,-8.06012 2.93083,-16.11946 3.66353,-16.11949 2.1981,-8.05937 2.93083,-8.06011 2.19809,-8.05936 2.93081,-7.32744 2.93083,-8.05936 2.93084,-7.32743 6.59432,-14.65414 7.32706,-14.65415 8.05973,-13.92147 8.79249,-13.18879 4.396259,-6.59402 5.12889,-6.59403 9.52524,-12.45612 10.25811,-12.45616 11.72272,-11.72345 10.99078,-10.99003 12.45615,-10.25812 5.86135,-5.12898 6.59477,-5.12892 13.18805,-8.79248 13.18878,-8.79249 14.65414,-8.05973 13.92146,-7.32708 7.32747,-3.66346 7.32669,-2.93084 8.06009,-2.93084 7.32668,-2.93081 15.38689,-5.86168 16.11941,-4.39614 16.11954,-3.66356 16.1194,-2.93081 16.85218,-2.19815 16.85218,-0.73269 8.79273,-0.73269 8.79286,0 16.85205,0.73269 16.85218,0.73269 8.79196,1.46542 8.06022,0.73273 16.85205,2.93081 16.11954,3.66356 7.32668,2.19805 8.06008,2.19809 8.05933,2.93084 7.32744,2.93084 8.05932,2.93081 7.32745,2.93084 14.65425,6.5943 14.65412,7.32708 13.92136,8.05973 13.18896,8.79249 6.59404,4.39625 6.59378,4.39623 13.18897,10.2579 11.72355,10.25812 11.72343,10.99003 10.99002,11.72345 10.25789,12.45616 5.12888,5.86135 5.12939,6.59477 9.52486,13.18805 8.06005,13.18879 8.0594,13.92147 7.3274,14.65415 3.6633,7.32744 3.6634,7.3267 2.9313,7.32743 2.9307,8.05936 5.1289,15.3868 4.3958,16.11948 3.6643,16.11949 2.9304,16.11946 2.1981,16.85214 1.4653,16.85215 0,8.7928 0,8.79278 0,16.85214 -1.4653,16.85213 -0.7325,8.79203 -1.4656,8.06011 -2.9304,16.1195 -3.6643,16.11947 -2.198,8.05936 -2.1978,8.0601 -2.9308,8.05936 -2.1981,7.32745 -2.9307,8.05936 -2.9313,7.32747 -7.3267,14.65412 -7.3274,14.65414 -8.0594,13.92145 -8.06005,13.18881 -5.12888,6.59402 -4.39598,6.59401 -10.25827,12.45616 -10.25789,12.45612 -10.99002,11.72345 -11.72343,10.99005 -11.72355,10.25811 -6.59404,5.12868 -6.59493,5.12947 -13.18782,8.79202 -13.18896,8.79278 -13.92136,8.05937 -14.65412,7.32743 -7.32745,3.66335 -7.3268,2.93067 -7.32745,3.66407 -8.05932,2.19805 -15.38677,5.86132 -15.38676,4.3961 -16.11954,3.6641 -16.85205,2.9305 -16.85218,2.1981 -16.85218,1.4654 -8.79273,0 -8.05932,0 -17.58559,0 -16.85218,-1.4654 -8.05932,-1.4653 -8.79286,-0.7328 -16.1194,-2.9305 -16.11954,-3.6641 -8.05932,-2.1981 -8.06009,-2.198 -7.32681,-2.9306 -8.06008,-2.93072 -7.32668,-2.19805 -8.06009,-3.66407 -14.65416,-6.59402 -13.92146,-7.32743 -14.65414,-8.05937 -13.18878,-8.79278 -6.59403,-4.39602 -6.59402,-4.396 -12.45612,-10.25815 -12.45615,-10.25811 -10.99078,-10.99005 -11.72272,-11.72345 -10.25811,-12.45612 -5.12897,-5.86136 -4.39627,-6.5948 -9.525149,-13.18803 -8.79249,-13.18881 -8.05973,-13.92145 -7.32706,-14.65414 -3.66351,-7.32743 -2.93081,-7.32669 -2.93084,-7.32747 -2.93083,-8.05936 -5.1289,-15.38681 -5.12893,-16.11946 -3.66353,-16.11947 -2.93083,-16.1195 -2.19812,-16.85214 -0.7327,-16.85213 -0.73269,-8.79278 0,-8.05936 z"
       style="fill:#003366;fill-opacity:1;fill-rule:evenodd;stroke:none" />
    <path
       inkscape:connector-curvature="0"
       id="path4179"
       d="m 270.67579,577.63825 178.77955,0 0,88.65752 -5.12862,-3.66412 -5.12875,-3.66335 -7.32745,-4.39601 -8.05932,-4.39602 -8.79286,-3.66409 -4.39598,-2.19801 -5.12939,-1.46533 -8.05945,-1.46535 -5.12862,0 -4.39675,0.73267 -4.39598,0.73268 -4.39611,1.46533 -7.32745,2.93067 -7.32668,4.39676 -7.32744,4.39602 -7.32668,4.39601 -8.79273,3.66336 -4.39611,1.46611 -5.12862,0.73267 -4.39675,0.73266 -4.39598,0.73267 -10.25814,0 -10.25738,0.73267 -9.5255,-0.73267 -15.38677,-0.73267 -6.59404,-0.73266 0,-88.65752 z"
       style="fill:#003366;fill-opacity:1;fill-rule:evenodd;stroke:none" />
  </g>
</svg>
