<?xml version="1.0" encoding="UTF-8" standalone="no"?>
<!-- Created with Inkscape (http://www.inkscape.org/) -->

<svg
   xmlns:dc="http://purl.org/dc/elements/1.1/"
   xmlns:cc="http://creativecommons.org/ns#"
   xmlns:rdf="http://www.w3.org/1999/02/22-rdf-syntax-ns#"
   xmlns:svg="http://www.w3.org/2000/svg"
   xmlns="http://www.w3.org/2000/svg"
   xmlns:sodipodi="http://sodipodi.sourceforge.net/DTD/sodipodi-0.dtd"
   xmlns:inkscape="http://www.inkscape.org/namespaces/inkscape"
   width="210mm"
   height="210mm"
   viewBox="0 0 744.09449 744.09448"
   id="svg4142"
   version="1.1"
   inkscape:version="0.91 r13725"
   sodipodi:docname="icoventas.svg">
  <defs
     id="defs4144">
    <pattern
       y="0"
       x="0"
       height="6"
       width="6"
       patternUnits="userSpaceOnUse"
       id="EMFhbasepattern" />
    <pattern
       y="0"
       x="0"
       height="6"
       width="6"
       patternUnits="userSpaceOnUse"
       id="EMFhbasepattern-4" />
    <pattern
       y="0"
       x="0"
       height="6"
       width="6"
       patternUnits="userSpaceOnUse"
       id="EMFhbasepattern-2" />
    <pattern
       y="0"
       x="0"
       height="6"
       width="6"
       patternUnits="userSpaceOnUse"
       id="EMFhbasepattern-7" />
  </defs>
  <sodipodi:namedview
     id="base"
     pagecolor="#ffffff"
     bordercolor="#666666"
     borderopacity="1.0"
     inkscape:pageopacity="0.0"
     inkscape:pageshadow="2"
     inkscape:zoom="1.1853516"
     inkscape:cx="231.16082"
     inkscape:cy="517.81582"
     inkscape:document-units="px"
     inkscape:current-layer="layer1"
     showgrid="false"
     inkscape:window-width="1920"
     inkscape:window-height="1027"
     inkscape:window-x="1912"
     inkscape:window-y="-8"
     inkscape:window-maximized="1" />
  <metadata
     id="metadata4147">
    <rdf:RDF>
      <cc:Work
         rdf:about="">
        <dc:format>image/svg+xml</dc:format>
        <dc:type
           rdf:resource="http://purl.org/dc/dcmitype/StillImage" />
        <dc:title></dc:title>
      </cc:Work>
    </rdf:RDF>
  </metadata>
  <g
     inkscape:label="Capa 1"
     inkscape:groupmode="layer"
     id="layer1"
     transform="translate(0,-308.26772)">
    <path
       inkscape:connector-curvature="0"
       id="path4764"
       d="m 416.61193,520.46738 -5.14298,19.28125 -2.57083,-2.57083 -3.85625,-2.57084 -5.14167,-1.28541 -5.14167,0 -5.14167,1.28541 -5.14298,1.28542 -3.85625,2.57084 -3.85625,3.85625 -3.85625,5.14298 -2.57084,6.42708 38.56383,0 -2.57084,10.28334 -37.27841,0 0,3.85625 0,5.14167 35.993,0 -2.57084,11.57012 -32.13674,0 2.57084,6.42708 3.85625,5.14167 2.57083,3.85625 5.14167,2.57215 5.14298,1.28542 5.14167,0 6.42709,0 5.14166,-1.28542 5.14167,-2.57215 3.85626,-3.85625 0,20.56799 -3.85626,2.57083 -5.14167,1.28542 -6.42708,1.28542 -5.14167,0 -5.14167,0 -5.14298,-1.28542 -8.99792,-2.57083 -3.85625,-1.28542 -3.85625,-2.57084 -3.85625,-2.57083 -2.57215,-3.85625 -3.85625,-5.14167 -3.85625,-5.14298 -2.57084,-6.42709 -1.28542,-6.42708 -10.28333,0 1.28541,-11.57012 7.71251,0 0,-3.85625 0,-5.14167 -8.99792,0 1.28541,-10.28334 8.99792,0 1.28542,-7.71381 2.57084,-5.14167 3.85625,-6.42709 3.85625,-5.14166 3.85756,-2.57084 2.57084,-2.57083 3.85625,-2.57084 5.14167,-2.57214 3.85625,-1.28542 5.14167,-1.28542 10.28465,-1.28542 5.14167,1.28542 5.14166,0 5.14167,1.28542 5.14298,2.57215 z"
       style="fill:#ffffff;fill-opacity:1;fill-rule:evenodd;stroke:none" />
    <path
       inkscape:connector-curvature="0"
       id="path4766"
       d="m 146.66059,664.44071 451.20314,0 0,-149.11632 -1.28542,-6.42708 -1.28542,-5.14167 -1.28542,-2.57083 -1.28541,-2.57084 -3.85626,-3.85625 -5.14166,-3.85756 -5.14298,-2.57084 -5.14167,-2.57083 -6.42714,0 -133.68999,1.28541 1.28542,-44.99147 141.40254,0 6.4284,1.28556 6.42708,0 6.42709,2.57097 6.42709,1.28542 5.14298,2.57097 5.14167,3.85649 5.14167,3.85639 5.14166,3.85639 3.85626,5.14195 3.85625,3.85649 2.57083,6.42751 2.57215,5.14167 2.57083,5.14166 1.28542,6.4284 1.28542,6.42709 0,6.42708 0,268.66541 0,6.42709 -1.28542,6.42708 -1.28542,6.4284 -2.57083,6.42709 -2.57215,5.14167 -2.57083,5.14167 -3.85625,5.14167 -3.85626,3.85761 -5.14166,5.14166 -5.14167,3.85626 -5.14167,2.57083 -5.14298,2.57083 -6.42709,2.57084 -6.42709,1.28542 -6.42708,1.28541 -6.4284,0 -408.78202,0 -6.42746,0 -6.42737,-1.28541 -6.42737,-1.28542 -5.1419,-2.57084 -6.42751,-2.57083 -5.1419,-2.57083 -5.14181,-3.85626 -3.85653,-5.14166 -3.85639,-3.85761 -3.85644,-5.14167 -3.85649,-5.14167 -2.57093,-5.14167 -2.57097,-6.42709 -1.28547,-6.4284 -1.28546,-6.42708 0,-6.42709 0,-268.66541 0,-6.42708 1.28546,-6.42709 1.28547,-6.4284 2.57097,-5.14166 2.57093,-5.14167 3.85649,-6.42751 3.85644,-3.85649 3.85639,-5.14195 3.85653,-3.85639 5.14181,-3.85639 5.1419,-3.85649 6.42751,-2.57097 5.1419,-1.28542 6.42737,-2.57097 6.42737,0 6.42746,-1.28556 156.8283,1.28556 0,43.70591 -147.82996,-1.28541 -6.42737,0 -5.14195,2.57083 -2.57092,1.28542 -2.57098,1.28542 -3.85653,3.85756 -3.85639,3.85625 -2.57098,5.14167 -2.57093,5.14167 0,6.42708 0,149.11632 z"
       style="fill:#ffffff;fill-opacity:1;fill-rule:evenodd;stroke:none" />
    <path
       inkscape:connector-curvature="0"
       id="path4768"
       d="m 597.86373,708.14625 -146.54422,0 0,25.70966 -131.11916,0 0,-25.70966 -173.53976,0 0,57.84771 0,6.42709 2.57093,5.14167 1.28547,2.57083 1.28551,2.57084 3.85639,5.14166 3.85653,3.85626 5.1419,2.57214 5.14195,1.28542 6.42737,1.28542 390.78571,0 6.42714,-1.28542 5.14167,-1.28542 2.57214,-1.28541 2.57084,-1.28673 5.14166,-3.85626 3.85626,-5.14166 2.57083,-5.14167 1.28542,-5.14167 1.28542,-6.42709 0,-57.84771 z"
       style="fill:#ffffff;fill-opacity:1;fill-rule:evenodd;stroke:none" />
    <path
       inkscape:connector-curvature="0"
       id="path4770"
       d="m 457.7466,343.07057 5.14167,0 5.14166,1.28547 5.14303,2.57097 2.57084,1.28546 1.28541,2.57093 3.85626,3.85649 2.57083,5.1419 1.28542,3.85649 0,6.42736 0,50.13366 -17.9972,0 0,-46.27726 -1.28542,-5.14195 -2.57083,-3.8564 -3.85626,-2.57097 -5.14166,-1.28542 -164.54133,0 -5.14166,1.28542 -3.85626,2.57097 -2.57214,3.8564 0,5.14195 0,46.27726 -19.28126,0 0,-50.13366 1.28542,-6.42736 1.28541,-3.85649 2.57084,-5.1419 1.28542,-2.57098 2.57083,-1.28551 3.85625,-3.85639 3.85625,-2.57097 5.14298,-1.28547 5.14167,0 172.25383,0 z"
       style="fill:#ffffff;fill-opacity:1;fill-rule:evenodd;stroke:none" />
  </g>
</svg>
