<?xml version="1.0" encoding="UTF-8" standalone="no"?>
<!-- Created with Inkscape (http://www.inkscape.org/) -->

<svg
   xmlns:dc="http://purl.org/dc/elements/1.1/"
   xmlns:cc="http://creativecommons.org/ns#"
   xmlns:rdf="http://www.w3.org/1999/02/22-rdf-syntax-ns#"
   xmlns:svg="http://www.w3.org/2000/svg"
   xmlns="http://www.w3.org/2000/svg"
   xmlns:sodipodi="http://sodipodi.sourceforge.net/DTD/sodipodi-0.dtd"
   xmlns:inkscape="http://www.inkscape.org/namespaces/inkscape"
   width="210mm"
   height="210mm"
   viewBox="0 0 744.09449 744.09448"
   id="svg2"
   version="1.1"
   inkscape:version="0.91 r13725"
   sodipodi:docname="iconoreload.svg">
  <defs
     id="defs4">
    <pattern
       y="0"
       x="0"
       height="6"
       width="6"
       patternUnits="userSpaceOnUse"
       id="EMFhbasepattern" />
    <pattern
       y="0"
       x="0"
       height="6"
       width="6"
       patternUnits="userSpaceOnUse"
       id="EMFhbasepattern-6" />
  </defs>
  <sodipodi:namedview
     id="base"
     pagecolor="#ffffff"
     bordercolor="#666666"
     borderopacity="1.0"
     inkscape:pageopacity="0.0"
     inkscape:pageshadow="2"
     inkscape:zoom="0.41908506"
     inkscape:cx="577.45059"
     inkscape:cy="646.94094"
     inkscape:document-units="px"
     inkscape:current-layer="layer1"
     showgrid="false"
     inkscape:window-width="1920"
     inkscape:window-height="1027"
     inkscape:window-x="1912"
     inkscape:window-y="-8"
     inkscape:window-maximized="1" />
  <metadata
     id="metadata7">
    <rdf:RDF>
      <cc:Work
         rdf:about="">
        <dc:format>image/svg+xml</dc:format>
        <dc:type
           rdf:resource="http://purl.org/dc/dcmitype/StillImage" />
        <dc:title></dc:title>
      </cc:Work>
    </rdf:RDF>
  </metadata>
  <g
     inkscape:label="Capa 1"
     inkscape:groupmode="layer"
     id="layer1"
     transform="translate(0,-308.26772)">
    <path
       inkscape:connector-curvature="0"
       id="path4154"
       d="m 116.78781,686.45483 0,-13.18879 0.73267,-12.45615 0.73342,-6.59477 1.46533,-5.86136 0.73267,-6.59402 1.46534,-5.8621 2.19801,-12.45612 3.66334,-11.72273 3.66335,-11.72346 4.39679,-10.99078 5.12868,-10.99004 5.86136,-10.99078 5.8621,-10.25812 6.59402,-10.25737 6.59477,-10.25813 7.32669,-8.79278 8.06011,-9.5247 8.79203,-8.79278 8.06013,-8.05936 9.52471,-8.0601 9.52545,-7.3267 4.39601,-3.66412 5.12943,-2.93067 10.25737,-6.59402 10.25812,-5.8621 5.12868,-2.93068 5.8621,-2.93068 10.99004,-5.12868 5.86213,-2.19801 5.12868,-2.19875 11.72345,-3.66335 5.86136,-2.19801 5.86135,-1.46534 12.45612,-2.93067 12.45612,-2.19801 12.45613,-1.46609 12.45615,-0.73266 13.18879,-0.73267 12.45537,0.73267 13.18879,0.73266 5.86211,0.73342 6.59402,0.73267 5.86135,1.46534 5.86213,0.73267 12.45612,2.93067 11.72271,3.66335 11.72345,3.66335 11.72345,4.39676 10.99079,5.12868 10.25737,5.86136 10.99081,5.8621 9.52544,6.59402 10.25737,6.59479 9.52545,7.3267 8.79203,8.0601 8.79277,8.05936 8.05936,8.79278 8.06014,9.5247 7.32669,8.79278 3.66409,5.12868 3.66335,5.12945 5.86135,10.25737 6.59477,10.25812 2.93068,5.12868 2.19801,5.8621 5.12868,10.99004 2.19875,5.12943 2.19801,5.86135 4.39602,11.72346 1.46533,5.86135 1.46534,5.86138 2.93068,12.45612 2.19801,12.45612 1.46608,12.45613 0.73267,12.45615 0.73267,13.18879 -0.73267,12.45537 -0.73267,12.45613 -0.73267,6.59477 -0.73341,5.86135 -0.73267,6.59402 -1.46534,5.86213 -2.93068,12.45612 -2.93067,11.72271 -4.39602,11.72345 -4.39676,10.99078 -5.12868,10.99004 -5.12869,10.99079 -6.59477,10.25814 -5.86135,10.25811 -7.32744,10.25737 -7.32669,9.52545 -8.06014,8.79203 -8.05936,8.79277 -8.79277,8.05936 -8.79203,8.06014 -9.52545,7.32669 -5.12868,3.66409 -5.12869,2.93068 -9.52544,6.59402 -10.99081,5.8621 -5.12869,2.93068 -5.12868,2.93068 -10.99079,5.12868 -5.8621,2.19875 -5.86135,2.19801 -11.72345,3.66335 -5.86136,2.198 -5.86135,1.46534 -12.45612,2.93068 -11.72348,2.19801 -12.45613,1.46608 -13.18879,0.73267 -12.45537,0.73267 -13.18879,-0.73267 -12.45615,-0.73267 -6.59477,-0.73267 -5.86136,-0.73341 -6.59402,-1.46534 -5.8621,-0.73267 -12.45612,-2.93068 -11.72271,-3.66334 -11.72345,-3.66335 -10.99081,-4.39676 -10.99004,-5.12868 -10.99078,-5.86136 -10.25812,-5.8621 -10.25737,-6.59402 -9.52544,-6.59477 -9.52545,-7.32669 -9.52471,-8.06014 -8.06013,-8.05936 -8.79203,-8.79277 -8.06011,-8.79203 -7.32669,-9.52545 -2.93143,-5.12868 -3.66334,-5.12869 -6.59402,-10.25811 -5.8621,-10.25814 -2.93068,-5.12869 -2.93068,-5.8621 -5.12868,-10.99004 -2.19801,-5.12943 -2.19878,-5.86135 -3.66335,-11.72345 -1.46533,-5.86136 -2.19801,-5.86135 -2.19801,-12.45612 -2.19801,-12.45615 -2.19875,-12.45612 -0.73267,-12.45613 0,-12.45537 z m -84.260714,0 0.732696,-17.58558 0.732722,-16.85214 1.465392,-8.79203 0.732723,-8.06011 2.93081,-16.11949 3.663559,-16.11947 2.198087,-8.05936 2.93081,-8.06011 2.198088,-8.05936 2.930836,-7.32744 2.93081,-8.05936 2.930837,-7.32744 6.594316,-14.65415 7.327092,-14.65413 8.059734,-13.92146 8.792483,-13.18879 4.396229,-6.59402 5.12892,-6.59403 9.52521,-12.45615 10.25812,-12.45612 11.7227,-11.72345 10.99081,-10.99004 12.45612,-10.25811 5.86136,-5.12901 6.59477,-5.1289 13.18804,-8.79248 13.18879,-8.79249 14.65417,-8.05973 13.92146,-7.32707 7.32744,-3.6635 7.32669,-2.93081 8.06011,-2.93084 7.32669,-2.93084 15.3868,-5.86164 16.1195,-4.39618 16.11946,-3.66353 16.11947,-2.93084 16.85214,-2.19811 16.85214,-0.7327 8.7928,-0.73269 8.79278,0 16.85214,0.73269 16.85213,0.7327 8.79203,1.46542 8.06014,0.73269 16.85213,2.93084 16.11947,3.66353 7.32669,2.19809 8.06011,2.19809 8.05936,2.93083 7.32744,2.93081 8.05936,2.93084 7.32747,2.93084 14.65413,6.59431 14.65413,7.32707 13.92146,8.05973 13.18882,8.79249 6.59402,4.39625 6.59402,4.39623 13.18879,10.25791 11.72346,10.25811 11.72345,10.99004 10.99004,11.72345 10.25811,12.45612 5.12869,5.86136 5.12945,6.59479 9.5247,13.18805 8.06011,13.18879 8.05936,13.92146 7.32744,14.65413 3.66335,7.32746 3.66334,7.32669 2.93143,7.32744 2.93067,8.05936 5.12869,15.3868 4.39601,16.11947 3.66412,16.11947 2.93068,16.11949 2.198,16.85214 1.46534,16.85214 0,8.7928 0,8.79278 0,16.85214 -1.46534,16.85213 -0.73266,8.79203 -1.46534,8.06014 -2.93068,16.11947 -3.66412,16.11946 -2.19801,8.05936 -2.198,8.06011 -2.93068,8.05936 -2.19801,7.32744 -2.93067,8.05936 -2.93143,7.32747 -7.32669,14.65413 -7.32744,14.65413 -8.05936,13.92146 -8.06011,13.18882 -5.12868,6.59402 -4.39602,6.59402 -10.25814,12.45612 -10.25811,12.45613 -10.99004,11.72345 -11.72345,10.99004 -11.72346,10.25811 -6.59402,5.12869 -6.59477,5.12945 -13.18804,8.79203 -13.18882,8.79278 -13.92146,8.05936 -14.65413,7.32744 -7.32744,3.66335 -7.32669,2.93067 -7.32747,3.6641 -8.05936,2.198 -15.3868,5.8614 -15.3868,4.396 -16.11947,3.6641 -16.85213,2.9307 -16.85217,2.198 -16.85213,1.4653 -8.79278,0 -8.05936,0 -17.58558,0 -16.85214,-1.4653 -8.05936,-1.4654 -8.79278,-0.7326 -16.11947,-2.9307 -16.11946,-3.6641 -8.05936,-2.198 -8.06014,-2.198 -7.32669,-2.9307 -8.06011,-2.9307 -7.32669,-2.198 -8.06011,-3.6641 -14.65413,-6.59402 -13.92146,-7.32744 -14.65417,-8.05936 -13.18879,-8.79278 -6.59402,-4.39601 -6.59402,-4.39602 -12.45613,-10.25814 -12.45612,-10.25811 -10.99081,-10.99004 -11.7227,-11.72345 -10.25812,-12.45613 -5.12898,-5.86135 -4.39623,-6.59477 -9.525149,-13.18804 -8.792483,-13.18882 -8.059734,-13.92146 -7.327092,-14.65413 -3.663479,-7.32744 -2.930837,-7.32669 -2.930837,-7.32747 -2.93081,-8.05936 -5.128924,-15.3868 -5.128897,-16.11947 -3.663559,-16.11946 -2.93081,-16.11947 -2.198115,-16.85217 -0.732722,-16.85213 -0.732696,-8.79278 0,-8.05936 z"
       style="fill:#003366;fill-opacity:1;fill-rule:evenodd;stroke:none" />
    <path
       inkscape:connector-curvature="0"
       id="path4156"
       d="m 475.0811,731.14914 0,30.04096 0,17.5848 -84.26146,0 -0.73267,-5.86135 0.73267,-5.12868 0.73267,-5.86211 63.74523,0 0,-2.198 0,-36.63498 5.12943,1.46534 5.12868,2.198 5.12869,2.19801 4.39676,2.19801 z m -252.05097,-199.29505 252.05097,0 0,150.20398 -4.39676,-1.46534 -5.12869,-1.46534 -5.12868,-1.46534 -5.12943,-0.73267 0,-128.22313 -212.48385,0 0,213.21651 101.84552,0 0,5.86211 -0.73267,5.12868 0,5.86135 -120.89641,0 0,-246.92081 z m 299.67673,236.66344 8.05936,16.85214 16.85214,32.97163 -3.66335,2.93068 -4.39601,2.19801 -3.6641,2.19875 -5.12868,1.46534 -9.5247,-19.78359 -2.93142,5.86213 -2.93068,5.12868 -3.66334,5.12869 -3.66335,5.12943 -3.66409,4.39601 -5.12869,4.39602 -4.39601,4.39676 -5.12946,3.66335 -5.12868,2.93067 -5.86136,2.93068 -5.8621,2.93068 -5.86135,1.46533 -5.86135,2.19876 -6.59477,0.73267 -6.59402,0.73267 -6.59477,0.73267 -8.79203,-0.73267 -8.06011,-1.46534 -4.39602,-0.73267 -4.39601,-1.46609 -8.06014,-2.93067 -7.32669,-3.66335 -7.32744,-4.39601 -2.93067,-2.19801 -3.66335,-2.19875 -5.8621,-5.86136 -5.86135,-5.86135 -5.12869,-7.32744 -4.39676,-6.59402 -3.66334,-8.06014 -2.93068,-7.32669 -1.46534,-8.79277 -1.46534,-4.39602 0,-4.39601 -0.73267,-4.39677 0,-4.39601 0.73267,-8.79203 1.46534,-8.06011 0.73267,-4.39601 0.73267,-4.39677 2.93068,-8.05936 3.66334,-7.32746 4.39676,-7.32669 2.93068,-2.93068 2.19801,-3.66334 5.86135,-5.86211 5.8621,-5.86135 6.59402,-5.12943 7.32744,-4.39601 7.32669,-3.66335 8.06014,-2.93068 8.79203,-1.46533 3.66409,-0.73267 4.39602,-0.73267 4.39601,-0.73267 4.39602,0 7.32743,0.73267 7.3267,0.73267 6.59477,1.46533 6.59402,1.46534 6.59477,2.93068 5.86135,2.93068 5.86135,2.93067 2.93145,2.19876 2.93068,1.46534 5.12868,4.39601 5.12869,4.39601 4.39676,5.12944 3.66335,5.12868 3.66334,5.86135 3.66335,5.86213 1.46534,2.93068 1.46608,3.66334 2.19801,5.86136 -20.51623,9.52544 -1.46534,-4.39601 -2.19801,-5.12943 -2.198,-4.39602 -2.93068,-4.39601 -2.93068,-4.39602 -2.93145,-4.39679 -3.66334,-3.66334 -4.39602,-2.93068 -3.66334,-2.93068 -5.12944,-2.93142 -4.39601,-2.19801 -5.12868,-2.19801 -5.12944,-1.46533 -5.12868,-0.73267 -5.12868,-0.73267 -5.8621,-0.73267 -6.59403,0.73267 -5.86135,0.73267 -6.59477,1.46534 -2.93068,1.46533 -2.93067,0.73267 -2.93068,1.46534 -2.93145,1.46534 -2.19801,1.46609 -2.93067,1.46533 -5.12869,4.39602 -4.39676,3.66334 -3.66335,4.39602 -4.39601,5.12946 -2.93068,5.12868 -2.93067,5.8621 -2.19876,5.86135 -1.46534,6.59403 -0.73267,5.8621 -0.73266,6.59402 0.73266,6.59477 0.73267,6.59402 1.46534,6.59402 1.46534,2.93143 0.73342,2.93067 1.46534,2.19801 1.46533,2.93068 1.46534,2.93067 1.46534,2.93068 4.39601,4.39679 3.66335,5.12868 4.39676,3.66335 5.12869,3.66409 5.12868,3.66335 5.86213,2.19801 5.86135,2.198 6.59477,2.19801 5.86135,0.73267 6.59403,0 5.12943,0 4.39601,-0.73267 4.39602,-0.73267 5.12943,-0.73267 8.05936,-3.66334 4.39601,-1.46534 3.6641,-2.93068 3.66334,-2.19875 3.66335,-2.93068 5.86135,-5.86135 1.46611,-2.19801 1.46534,-1.46534 2.93068,-3.66412 2.19801,-3.66334 2.198,-4.39602 -19.05017,9.52547 -2.93068,-3.66412 -2.198,-3.66334 -2.19876,-4.39602 -1.46534,-4.39676 33.70505,-17.58481 16.85214,-8.05936 z"
       style="fill:#003366;fill-opacity:1;fill-rule:evenodd;stroke:none" />
    <path
       inkscape:connector-curvature="0"
       id="path4158"
       d="m 261.13117,567.02373 178.77957,0 0,88.65747 -5.12869,-3.66409 -5.86135,-3.66335 -6.59477,-4.39601 -8.79203,-4.39602 -8.7928,-4.39676 -4.39602,-1.46534 -4.39676,-1.46533 -8.79203,-1.46534 -5.12868,0 -4.39677,0 -4.39601,0.73267 -3.66335,1.46533 -8.0601,3.66335 -7.32669,3.66409 -6.5948,4.39602 -8.05936,4.39601 -8.06011,3.66335 -4.39601,1.46534 -5.12869,1.46608 -4.39676,0.73267 -5.12868,0 -9.52545,0.73267 -10.25737,0 -9.52544,0 -15.38683,-1.46534 -6.59402,0 0,-88.65747 z"
       style="fill:#003366;fill-opacity:1;fill-rule:evenodd;stroke:none" />
  </g>
</svg>
